<?xml version="1.0" encoding="UTF-8"?>
<svg id="Layer_1" data-name="Layer 1" xmlns="http://www.w3.org/2000/svg" xmlns:xlink="http://www.w3.org/1999/xlink" viewBox="0 0 850.82 409.9">
  <defs>
    <style>
      .cls-1, .cls-2, .cls-3, .cls-4, .cls-5, .cls-6, .cls-7, .cls-8, .cls-9, .cls-10, .cls-11, .cls-12, .cls-13, .cls-14, .cls-15, .cls-16, .cls-17, .cls-18, .cls-19, .cls-20 {
        fill: none;
      }

      .cls-21, .cls-22, .cls-23, .cls-24, .cls-25, .cls-26, .cls-27, .cls-28, .cls-29 {
        font-family: Helvetica, Helvetica;
      }

      .cls-21, .cls-25 {
        font-size: 16px;
      }

      .cls-22 {
        font-size: 18px;
      }

      .cls-23 {
        font-size: 20px;
      }

      .cls-24, .cls-26, .cls-27, .cls-28, .cls-29 {
        font-size: 21px;
      }

      .cls-2 {
        stroke-width: 3.04px;
      }

      .cls-2, .cls-3, .cls-4, .cls-5, .cls-6, .cls-7, .cls-8, .cls-9, .cls-10, .cls-11, .cls-12, .cls-13, .cls-16, .cls-17, .cls-18, .cls-19, .cls-20 {
        stroke-linejoin: round;
      }

      .cls-2, .cls-3, .cls-4, .cls-5, .cls-8, .cls-9, .cls-10, .cls-11, .cls-12, .cls-13, .cls-16, .cls-17 {
        stroke-linecap: round;
      }

      .cls-2, .cls-3, .cls-16, .cls-17 {
        stroke: #ccc;
      }

      .cls-3 {
        stroke-width: 3.24px;
      }

      .cls-30, .cls-27 {
        fill: #a9a9a9;
      }

      .cls-4 {
        stroke: #939393;
        stroke-width: 6.11px;
      }

      .cls-31, .cls-26 {
        fill: #939393;
      }

      .cls-32, .cls-28 {
        fill: #363636;
      }

      .cls-25, .cls-33 {
        fill: #ccc;
      }

      .cls-5 {
        stroke-width: 2.13px;
      }

      .cls-5, .cls-6, .cls-12, .cls-13, .cls-14, .cls-15, .cls-19 {
        stroke: #000;
      }

      .cls-6, .cls-7, .cls-18, .cls-19 {
        stroke-width: 1.07px;
      }

      .cls-34 {
        fill: #bebebe;
      }

      .cls-7 {
        stroke: #333;
      }

      .cls-35 {
        clip-path: url(#clippath-1);
      }

      .cls-8 {
        stroke: #4a4a4a;
        stroke-width: 8.82px;
      }

      .cls-9 {
        stroke: #fff;
        stroke-width: 1.47px;
      }

      .cls-10 {
        stroke: #a9a9a9;
        stroke-width: 5.04px;
      }

      .cls-36 {
        fill: #fff;
      }

      .cls-11 {
        stroke: #363636;
        stroke-width: 10.73px;
      }

      .cls-12 {
        stroke-width: .72px;
      }

      .cls-13 {
        stroke-width: .72px;
      }

      .cls-14 {
        stroke-width: .75px;
      }

      .cls-14, .cls-15 {
        stroke-miterlimit: 10;
      }

      .cls-15 {
        stroke-width: 1.09px;
      }

      .cls-16 {
        stroke-dasharray: 3.21 5.35;
        stroke-width: .95px;
      }

      .cls-17 {
        stroke-width: 1.42px;
      }

      .cls-37, .cls-29 {
        fill: #4a4a4a;
      }

      .cls-18, .cls-20 {
        stroke: #ebebeb;
      }

      .cls-38 {
        letter-spacing: -.12em;
      }

      .cls-39 {
        letter-spacing: -.02em;
      }

      .cls-40 {
        letter-spacing: -.02em;
      }

      .cls-41 {
        letter-spacing: -.02em;
      }

      .cls-42 {
        letter-spacing: -.01em;
      }

      .cls-43 {
        letter-spacing: -.01em;
      }

      .cls-44 {
        letter-spacing: -.04em;
      }

      .cls-45 {
        letter-spacing: -.04em;
      }

      .cls-46 {
        letter-spacing: -.03em;
      }

      .cls-19 {
        stroke-dasharray: 4.27 4.27;
      }

      .cls-47 {
        clip-path: url(#clippath);
      }

      .cls-48 {
        letter-spacing: .03em;
      }

      .cls-49 {
        letter-spacing: .03em;
      }

      .cls-50 {
        letter-spacing: .03em;
      }

      .cls-20 {
        stroke-width: .53px;
      }
    </style>
    <clipPath id="clippath">
      <rect class="cls-1" width="850.82" height="409.9"/>
    </clipPath>
    <clipPath id="clippath-1">
      <rect class="cls-1" x="587.6" y="13.99" width="250.55" height="329.89"/>
    </clipPath>
  </defs>
  <g class="cls-47">
    <rect class="cls-36" width="850.82" height="409.9"/>
    <rect class="cls-9" width="850.82" height="409.9"/>
  </g>
  <line class="cls-16" x1="103.68" y1="224.36" x2="200.15" y2="316.27"/>
  <polygon class="cls-30" points="195.66 321.39 208.26 323.9 204.13 311.73 195.66 321.39"/>
  <polyline class="cls-17" points="167.85 374.18 166.83 374.76 164.98 375.13 163.92 375.17 162.32 375.04 160.61 374.67 158.82 374.05 157 373.18 155.23 372.08 153.58 370.83 152.13 369.44 150.9 367.99 150.01 366.61 149.21 364.99 148.58 363.21 148.14 361.28 147.91 359.22 147.9 357.11 148.12 355.04 148.54 353.09 149.17 351.31 149.96 349.68 150.01 349.59 151.02 348.06 152.27 346.61 153.74 345.23 155.4 343.99 157.2 342.92 159.02 342.08 160.8 341.48 162.49 341.14 163.92 341.03 165.75 341.18 167.65 341.72 167.92 341.88"/>
  <polygon class="cls-33" points="168.71 334.71 164.57 346.86 177.16 344.37 168.71 334.71"/>
  <polygon class="cls-33" points="177.18 372.85 165.15 368.37 167.28 381.02 177.18 372.85"/>
  <polyline class="cls-2" points="357.84 158.55 358.42 157.53 358.79 155.69 358.83 154.63 358.7 153.02 358.33 151.32 357.71 149.53 356.83 147.7 355.74 145.93 354.48 144.28 353.1 142.83 351.64 141.61 350.27 140.71 348.65 139.91 346.87 139.28 344.94 138.84 342.87 138.61 340.76 138.6 338.7 138.82 336.74 139.25 334.96 139.87 333.34 140.67 333.25 140.71 331.72 141.73 330.27 142.97 328.89 144.45 327.64 146.11 326.57 147.9 325.73 149.72 325.13 151.5 324.79 153.2 324.68 154.63 324.84 156.45 325.37 158.35 325.54 158.63"/>
  <polygon class="cls-33" points="331.06 155.37 331.18 168.21 320.01 161.89 331.06 155.37"/>
  <polygon class="cls-33" points="363.42 161.73 352.33 168.21 352.27 155.37 363.42 161.73"/>
  <polyline class="cls-3" points="94.24 238.25 94.82 239.27 95.2 241.12 95.24 242.17 95.11 243.78 94.74 245.48 94.11 247.28 93.24 249.1 92.15 250.87 90.89 252.52 89.5 253.97 88.05 255.2 86.67 256.09 85.06 256.89 83.28 257.52 81.34 257.96 79.28 258.19 77.17 258.2 75.11 257.98 73.15 257.56 71.37 256.93 69.74 256.14 69.66 256.09 68.13 255.08 66.67 253.83 65.3 252.36 64.05 250.7 62.98 248.9 62.14 247.08 61.54 245.3 61.2 243.61 61.09 242.17 61.24 240.35 61.78 238.45 61.94 238.18"/>
  <polygon class="cls-33" points="67.47 241.43 67.59 228.6 56.42 234.91 67.47 241.43"/>
  <polygon class="cls-33" points="99.83 235.07 88.74 228.6 88.67 241.43 99.83 235.07"/>
  <line class="cls-10" x1="110.06" y1="196.51" x2="304.66" y2="196.51"/>
  <polygon class="cls-30" points="304.79 202.94 315.91 196.51 304.79 190.1 304.79 202.94"/>
  <line class="cls-4" x1="99.83" y1="59.97" x2="305.33" y2="183.05"/>
  <polygon class="cls-31" points="303.14 188.92 315.91 187.51 308.29 177.17 303.14 188.92"/>
  <line class="cls-8" x1="78.17" y1="77.58" x2="78.17" y2="149.17"/>
  <polygon class="cls-37" points="70.59 148.4 78.17 161.51 85.74 148.4 70.59 148.4"/>
  <line class="cls-11" x1="326.09" y1="211.82" x2="221.66" y2="315.18"/>
  <polygon class="cls-32" points="216.66 308.12 210.89 324.42 228.5 321.05 216.66 308.12"/>
  <rect class="cls-36" x="62.77" y="251.44" width="32.97" height="13.53"/>
  <rect class="cls-36" x="235.71" y="17.33" width="26.83" height="9.87"/>
  <rect class="cls-36" x="170.6" y="186.03" width="53.59" height="21.96"/>
  <rect class="cls-36" x="170.6" y="112.01" width="57.9" height="22.26"/>
  <rect class="cls-36" x="57.02" y="104.27" width="45.21" height="19.19"/>
  <rect class="cls-36" x="245.65" y="259.24" width="47.05" height="20.25"/>
  <text class="cls-25" transform="translate(63.19 263.84)"><tspan x="0" y="0">0.25</tspan></text>
  <text class="cls-27" transform="translate(171.52 202.52)"><tspan x="0" y="0">−0.42</tspan></text>
  <text class="cls-26" transform="translate(172.52 129.77)"><tspan x="0" y="0">−0.53</tspan></text>
  <text class="cls-29" transform="translate(60.74 119.94)"><tspan x="0" y="0">0.89</tspan></text>
  <text class="cls-28" transform="translate(249.72 276.94)"><tspan x="0" y="0">0.98</tspan></text>
  <rect class="cls-36" x="44.86" y="162.63" width="66.6" height="65.87"/>
  <rect class="cls-13" x="45.37" y="162.14" width="67.34" height="65.61"/>
  <rect class="cls-36" x="316.24" y="169.1" width="51.03" height="51.05"/>
  <rect class="cls-12" x="316.24" y="169.36" width="51.05" height="51.05"/>
  <rect class="cls-36" x="52.65" y="26.53" width="51.04" height="51.05"/>
  <rect class="cls-12" x="52.65" y="26.53" width="51.05" height="51.05"/>
  <text class="cls-21" transform="translate(44.86 191.23)"><tspan class="cls-45" x="0" y="0">P</tspan><tspan x="10.05" y="0">athogen</tspan></text>
  <text class="cls-21" transform="translate(64.16 210.17)"><tspan x="0" y="0">load</tspan></text>
  <text class="cls-22" transform="translate(322.66 191.53)"><tspan x="0" y="0">Host</tspan></text>
  <text class="cls-22" transform="translate(316.47 214.01)"><tspan x="0" y="0">health</tspan></text>
  <text class="cls-24" transform="translate(53.89 59.9)"><tspan x="0" y="0">Time</tspan></text>
  <rect class="cls-36" x="326.09" y="131.84" width="32.97" height="13.53"/>
  <text class="cls-25" transform="translate(327.22 143.1)"><tspan x="0" y="0">0.23</tspan></text>
  <rect class="cls-36" x="127.82" y="351.14" width="32.97" height="13.53"/>
  <text class="cls-25" transform="translate(129.87 363.11)"><tspan x="0" y="0">0.07</tspan></text>
  <rect class="cls-36" x="178.23" y="325.26" width="66.6" height="65.87"/>
  <text class="cls-22" transform="translate(179.7 363.11)"><tspan x="0" y="0">Su</tspan><tspan class="cls-48" x="22.02" y="0">r</tspan><tspan x="28.53" y="0">vi</tspan><tspan class="cls-41" x="41.53" y="0">v</tspan><tspan x="50.1" y="0">al</tspan></text>
  <rect class="cls-36" x="141.26" y="271.31" width="32.97" height="13.53"/>
  <text class="cls-25" transform="translate(143.86 282.83)"><tspan x="0" y="0">0.01</tspan></text>
  <rect class="cls-15" x="25.8" y="17.33" width="365.67" height="380.69"/>
  <text class="cls-23" transform="translate(4.12 25.41)"><tspan x="0" y="0">A</tspan></text>
  <text class="cls-23" transform="translate(401.66 25.41)"><tspan x="0" y="0">B</tspan></text>
  <rect class="cls-36" x="423.06" y="8.51" width="420.57" height="396"/>
  <g class="cls-35">
    <rect class="cls-36" x="587.6" y="13.99" width="250.55" height="329.89"/>
    <line class="cls-20" x1="588.01" y1="343.88" x2="588.01" y2="13.99"/>
    <line class="cls-20" x1="656.62" y1="343.88" x2="656.62" y2="13.99"/>
    <line class="cls-20" x1="725.23" y1="343.88" x2="725.23" y2="13.99"/>
    <line class="cls-20" x1="793.83" y1="343.88" x2="793.83" y2="13.99"/>
    <line class="cls-18" x1="587.6" y1="319.74" x2="838.15" y2="319.74"/>
    <line class="cls-18" x1="587.6" y1="279.51" x2="838.15" y2="279.51"/>
    <line class="cls-18" x1="587.6" y1="239.28" x2="838.15" y2="239.28"/>
    <line class="cls-18" x1="587.6" y1="199.05" x2="838.15" y2="199.05"/>
    <line class="cls-18" x1="587.6" y1="158.82" x2="838.15" y2="158.82"/>
    <line class="cls-18" x1="587.6" y1="118.59" x2="838.15" y2="118.59"/>
    <line class="cls-18" x1="587.6" y1="78.36" x2="838.15" y2="78.36"/>
    <line class="cls-18" x1="587.6" y1="38.13" x2="838.15" y2="38.13"/>
    <line class="cls-18" x1="622.32" y1="343.88" x2="622.32" y2="13.99"/>
    <line class="cls-18" x1="690.92" y1="343.88" x2="690.92" y2="13.99"/>
    <line class="cls-18" x1="759.53" y1="343.88" x2="759.53" y2="13.99"/>
    <line class="cls-18" x1="828.13" y1="343.88" x2="828.13" y2="13.99"/>
    <rect class="cls-34" x="690.92" y="26.06" width="122.12" height="24.14"/>
    <rect class="cls-34" x="622.32" y="66.29" width="68.61" height="24.14"/>
    <rect class="cls-34" x="618.2" y="106.52" width="72.72" height="24.14"/>
    <rect class="cls-34" x="690.92" y="146.75" width="67.23" height="24.14"/>
    <rect class="cls-34" x="633.29" y="186.98" width="57.63" height="24.14"/>
    <rect class="cls-34" x="662.11" y="227.21" width="28.81" height="24.14"/>
    <rect class="cls-34" x="690.92" y="267.44" width="1.37" height="24.14"/>
    <rect class="cls-34" x="663.48" y="307.67" width="27.44" height="24.14"/>
    <line class="cls-19" x1="690.92" y1="343.88" x2="690.92" y2="13.99"/>
    <line class="cls-6" x1="826.76" y1="42.15" x2="826.76" y2="34.1"/>
    <line class="cls-6" x1="826.76" y1="38.13" x2="799.32" y2="38.13"/>
    <line class="cls-6" x1="799.32" y1="42.15" x2="799.32" y2="34.1"/>
    <line class="cls-6" x1="634.67" y1="82.38" x2="634.67" y2="74.34"/>
    <line class="cls-6" x1="634.67" y1="78.36" x2="609.97" y2="78.36"/>
    <line class="cls-6" x1="609.97" y1="82.38" x2="609.97" y2="74.34"/>
    <line class="cls-6" x1="637.41" y1="122.61" x2="637.41" y2="114.57"/>
    <line class="cls-6" x1="637.41" y1="118.59" x2="598.99" y2="118.59"/>
    <line class="cls-6" x1="598.99" y1="122.61" x2="598.99" y2="114.57"/>
    <line class="cls-6" x1="765.02" y1="162.84" x2="765.02" y2="154.8"/>
    <line class="cls-6" x1="765.02" y1="158.82" x2="752.67" y2="158.82"/>
    <line class="cls-6" x1="752.67" y1="162.84" x2="752.67" y2="154.8"/>
    <line class="cls-6" x1="651.13" y1="203.07" x2="651.13" y2="195.03"/>
    <line class="cls-6" x1="651.13" y1="199.05" x2="614.08" y2="199.05"/>
    <line class="cls-6" x1="614.08" y1="203.07" x2="614.08" y2="195.03"/>
    <line class="cls-6" x1="671.71" y1="243.3" x2="671.71" y2="235.26"/>
    <line class="cls-6" x1="671.71" y1="239.28" x2="652.5" y2="239.28"/>
    <line class="cls-6" x1="652.5" y1="243.3" x2="652.5" y2="235.26"/>
    <line class="cls-6" x1="699.15" y1="283.53" x2="699.15" y2="275.49"/>
    <line class="cls-6" x1="699.15" y1="279.51" x2="686.81" y2="279.51"/>
    <line class="cls-6" x1="686.81" y1="283.53" x2="686.81" y2="275.49"/>
    <line class="cls-6" x1="673.08" y1="323.76" x2="673.08" y2="315.72"/>
    <line class="cls-6" x1="673.08" y1="319.74" x2="653.87" y2="319.74"/>
    <line class="cls-6" x1="653.87" y1="323.76" x2="653.87" y2="315.72"/>
    <line class="cls-19" x1="587.6" y1="359.97" x2="838.15" y2="359.97"/>
    <rect class="cls-5" x="587.6" y="13.99" width="250.55" height="329.89"/>
  </g>
  <text class="cls-21" transform="translate(465.78 324.77)"><tspan class="cls-38" x="0" y="0">T</tspan><tspan x="7.87" y="0">otal (a × b + c&apos;)</tspan></text>
  <text class="cls-21" transform="translate(411.08 284.54)"><tspan class="cls-44" x="0" y="0">P</tspan><tspan x="10.03" y="0" xml:space="preserve">athogen    Su</tspan><tspan class="cls-49" x="105.22" y="0">r</tspan><tspan x="111.01" y="0">vi</tspan><tspan class="cls-40" x="122.57" y="0">v</tspan><tspan x="130.18" y="0">al (c&apos;)</tspan></text>
  <text class="cls-21" transform="translate(476.27 244.31)"><tspan x="0" y="0">Indirect (a × b)</tspan></text>
  <text class="cls-21" transform="translate(423.96 204.08)"><tspan class="cls-45" x="0" y="0">P</tspan><tspan x="10.05" y="0" xml:space="preserve">athogen    Health (a)</tspan></text>
  <text class="cls-21" transform="translate(434.87 163.84)"><tspan x="0" y="0" xml:space="preserve">Health    Su</tspan><tspan class="cls-50" x="83.6" y="0">r</tspan><tspan x="89.39" y="0">vi</tspan><tspan class="cls-39" x="100.95" y="0">v</tspan><tspan x="108.55" y="0">al (b)</tspan></text>
  <text class="cls-21" transform="translate(447.39 123.61)"><tspan x="0" y="0" xml:space="preserve">Time    Health (h1)</tspan></text>
  <text class="cls-21" transform="translate(424.88 83.38)"><tspan x="0" y="0" xml:space="preserve">Time²    </tspan><tspan class="cls-45" x="58.66" y="0">P</tspan><tspan x="68.71" y="0">athogen (t2)</tspan></text>
  <text class="cls-21" transform="translate(430.21 43.15)"><tspan x="0" y="0" xml:space="preserve">Time    </tspan><tspan class="cls-45" x="53.34" y="0">P</tspan><tspan x="63.38" y="0">athogen (t1)</tspan></text>
  <line class="cls-7" x1="580.51" y1="319.74" x2="587.6" y2="319.74"/>
  <line class="cls-7" x1="580.51" y1="279.51" x2="587.6" y2="279.51"/>
  <line class="cls-7" x1="580.51" y1="239.28" x2="587.6" y2="239.28"/>
  <line class="cls-7" x1="580.51" y1="199.05" x2="587.6" y2="199.05"/>
  <line class="cls-7" x1="580.51" y1="158.82" x2="587.6" y2="158.82"/>
  <line class="cls-7" x1="580.51" y1="118.59" x2="587.6" y2="118.59"/>
  <line class="cls-7" x1="580.51" y1="78.36" x2="587.6" y2="78.36"/>
  <line class="cls-7" x1="580.51" y1="38.13" x2="587.6" y2="38.13"/>
  <line class="cls-7" x1="622.32" y1="350.97" x2="622.32" y2="343.88"/>
  <line class="cls-7" x1="690.92" y1="350.97" x2="690.92" y2="343.88"/>
  <line class="cls-7" x1="759.53" y1="350.97" x2="759.53" y2="343.88"/>
  <line class="cls-7" x1="828.13" y1="350.97" x2="828.13" y2="343.88"/>
  <text class="cls-21" transform="translate(608.5 370.98)"><tspan x="0" y="0">−0.5</tspan></text>
  <text class="cls-21" transform="translate(681.19 370.98)"><tspan x="0" y="0">0.0</tspan></text>
  <text class="cls-21" transform="translate(749.8 370.98)"><tspan x="0" y="0">0.5</tspan></text>
  <text class="cls-21" transform="translate(818.4 370.98)"><tspan x="0" y="0">1.0</tspan></text>
  <text class="cls-21" transform="translate(625.76 395.51)"><tspan x="0" y="0">Standardi</tspan><tspan class="cls-43" x="68.49" y="0">z</tspan><tspan x="76.27" y="0">ed Ef</tspan><tspan class="cls-46" x="113.63" y="0">f</tspan><tspan x="117.61" y="0">ect Si</tspan><tspan class="cls-42" x="157.62" y="0">z</tspan><tspan x="165.38" y="0">e</tspan></text>
  <g>
    <line class="cls-14" x1="469.16" y1="78.36" x2="479.62" y2="78.36"/>
    <polygon points="475.18 80.74 474.93 80.04 479.54 78.36 474.93 76.68 475.18 75.97 481.73 78.36 475.18 80.74"/>
  </g>
  <g>
    <line class="cls-14" x1="469.16" y1="38.13" x2="479.62" y2="38.13"/>
    <polygon points="475.18 40.51 474.93 39.81 479.54 38.13 474.93 36.45 475.18 35.74 481.73 38.13 475.18 40.51"/>
  </g>
  <g>
    <line class="cls-14" x1="485.23" y1="118.59" x2="495.69" y2="118.59"/>
    <polygon points="491.26 120.97 491 120.27 495.62 118.59 491 116.91 491.26 116.2 497.81 118.59 491.26 120.97"/>
  </g>
  <g>
    <line class="cls-14" x1="482.73" y1="158.82" x2="493.19" y2="158.82"/>
    <polygon points="488.76 161.2 488.5 160.5 493.12 158.82 488.5 157.14 488.76 156.43 495.31 158.82 488.76 161.2"/>
  </g>
  <g>
    <line class="cls-14" x1="493.91" y1="199.05" x2="504.37" y2="199.05"/>
    <polygon points="499.93 201.43 499.68 200.73 504.29 199.05 499.68 197.37 499.93 196.66 506.49 199.05 499.93 201.43"/>
  </g>
  <g>
    <line class="cls-14" x1="481.33" y1="279.51" x2="491.79" y2="279.51"/>
    <polygon points="487.36 281.89 487.1 281.19 491.72 279.51 487.1 277.83 487.36 277.12 493.91 279.51 487.36 281.89"/>
  </g>
  <rect class="cls-13" x="177.86" y="325.39" width="67.34" height="65.61"/>
</svg>