<?xml version="1.0" encoding="UTF-8"?><svg id="Layer_1" xmlns="http://www.w3.org/2000/svg" xmlns:xlink="http://www.w3.org/1999/xlink" viewBox="0 0 936 288"><defs><style>.cls-1,.cls-2,.cls-3,.cls-4,.cls-5,.cls-6,.cls-7,.cls-8,.cls-9{fill:none;}.cls-10{fill:#ee9b43;}.cls-11{font-size:16px;}.cls-11,.cls-12{font-family:Helvetica, Helvetica;}.cls-12,.cls-13{font-size:14px;}.cls-13{font-family:Helvetica-Bold, Helvetica;font-weight:700;}.cls-2,.cls-3,.cls-4,.cls-5,.cls-6,.cls-7,.cls-8,.cls-9{stroke-linejoin:round;}.cls-2,.cls-3,.cls-6{stroke:#000;}.cls-2,.cls-3,.cls-7{stroke-width:2.13px;}.cls-3,.cls-5,.cls-6{stroke-linecap:round;}.cls-4{stroke:#333;}.cls-4,.cls-5,.cls-8{stroke-width:1.07px;}.cls-14{clip-path:url(#clippath-1);}.cls-15{clip-path:url(#clippath-3);}.cls-16{clip-path:url(#clippath-4);}.cls-17{clip-path:url(#clippath-2);}.cls-18{clip-path:url(#clippath-5);}.cls-5{stroke:#fff;}.cls-19{fill:#fff;}.cls-20{fill:#94aec2;}.cls-6{stroke-width:.71px;}.cls-7{stroke:#7f7f7f;stroke-dasharray:8.54 8.54;}.cls-8,.cls-9{stroke:#ebebeb;}.cls-21{letter-spacing:-.02em;}.cls-22{letter-spacing:-.02em;}.cls-23{fill:#c993a2;}.cls-24{letter-spacing:-.03em;}.cls-25{fill:#19798b;}.cls-26{clip-path:url(#clippath);}.cls-27{letter-spacing:.04em;}.cls-28{letter-spacing:.04em;}.cls-29{letter-spacing:.03em;}.cls-9{stroke-width:.53px;}</style><clipPath id="clippath"><rect class="cls-1" width="312" height="288"/></clipPath><clipPath id="clippath-1"><rect class="cls-1" x="55.28" y="5.48" width="251.24" height="221.89"/></clipPath><clipPath id="clippath-2"><rect class="cls-1" x="312" width="312" height="288"/></clipPath><clipPath id="clippath-3"><rect class="cls-1" x="367.28" y="5.48" width="251.24" height="221.89"/></clipPath><clipPath id="clippath-4"><rect class="cls-1" x="624" width="312" height="288"/></clipPath><clipPath id="clippath-5"><rect class="cls-1" x="698.74" y="5.48" width="231.78" height="221.89"/></clipPath></defs><g class="cls-26"><rect class="cls-19" width="312" height="288"/><rect class="cls-5" width="312" height="288"/></g><g class="cls-14"><rect class="cls-19" x="55.28" y="5.48" width="251.24" height="221.89"/><line class="cls-9" x1="55.28" y1="223.03" x2="306.52" y2="223.03"/><line class="cls-9" x1="55.28" y1="169.78" x2="306.52" y2="169.78"/><line class="cls-9" x1="55.28" y1="116.53" x2="306.52" y2="116.53"/><line class="cls-9" x1="55.28" y1="63.27" x2="306.52" y2="63.27"/><line class="cls-9" x1="55.28" y1="10.02" x2="306.52" y2="10.02"/><line class="cls-9" x1="75.48" y1="227.37" x2="75.48" y2="5.48"/><line class="cls-9" x1="124.78" y1="227.37" x2="124.78" y2="5.48"/><line class="cls-9" x1="174.07" y1="227.37" x2="174.07" y2="5.48"/><line class="cls-9" x1="223.36" y1="227.37" x2="223.36" y2="5.48"/><line class="cls-9" x1="272.66" y1="227.37" x2="272.66" y2="5.48"/><line class="cls-8" x1="55.28" y1="196.41" x2="306.52" y2="196.41"/><line class="cls-8" x1="55.28" y1="143.15" x2="306.52" y2="143.15"/><line class="cls-8" x1="55.28" y1="89.9" x2="306.52" y2="89.9"/><line class="cls-8" x1="55.28" y1="36.65" x2="306.52" y2="36.65"/><line class="cls-8" x1="100.13" y1="227.37" x2="100.13" y2="5.48"/><line class="cls-8" x1="149.42" y1="227.37" x2="149.42" y2="5.48"/><line class="cls-8" x1="198.72" y1="227.37" x2="198.72" y2="5.48"/><line class="cls-8" x1="248.01" y1="227.37" x2="248.01" y2="5.48"/><line class="cls-8" x1="297.3" y1="227.37" x2="297.3" y2="5.48"/><path class="cls-25" d="M71.08,44.72c0-1.36,1.12-2.48,2.49-2.48s2.49,1.12,2.49,2.48-1.12,2.49-2.49,2.49-2.49-1.12-2.49-2.49"/><path class="cls-6" d="M71.08,44.72c0-1.36,1.12-2.48,2.49-2.48s2.49,1.12,2.49,2.48-1.12,2.49-2.49,2.49-2.49-1.12-2.49-2.49"/><path class="cls-25" d="M75.26,17.32c0-1.37,1.12-2.49,2.49-2.49s2.48,1.12,2.48,2.49-1.11,2.49-2.48,2.49-2.49-1.12-2.49-2.49"/><path class="cls-6" d="M75.26,17.32c0-1.37,1.12-2.49,2.49-2.49s2.48,1.12,2.48,2.49-1.11,2.49-2.48,2.49-2.49-1.12-2.49-2.49"/><path class="cls-25" d="M65.64,34.86c0-1.37,1.11-2.49,2.48-2.49s2.49,1.12,2.49,2.49-1.12,2.48-2.49,2.48-2.48-1.12-2.48-2.48"/><path class="cls-6" d="M65.64,34.86c0-1.37,1.11-2.49,2.48-2.49s2.49,1.12,2.49,2.49-1.12,2.48-2.49,2.48-2.48-1.12-2.48-2.48"/><path class="cls-25" d="M74.47,22.56c0-1.37,1.12-2.49,2.49-2.49s2.49,1.12,2.49,2.49-1.12,2.48-2.49,2.48-2.49-1.12-2.49-2.48"/><path class="cls-6" d="M74.47,22.56c0-1.37,1.12-2.49,2.49-2.49s2.49,1.12,2.49,2.49-1.12,2.48-2.49,2.48-2.49-1.12-2.49-2.48"/><path class="cls-25" d="M64.21,40.07c0-1.37,1.12-2.49,2.49-2.49s2.49,1.12,2.49,2.49-1.12,2.49-2.49,2.49-2.49-1.12-2.49-2.49"/><path class="cls-6" d="M64.21,40.07c0-1.37,1.12-2.49,2.49-2.49s2.49,1.12,2.49,2.49-1.12,2.49-2.49,2.49-2.49-1.12-2.49-2.49"/><path class="cls-25" d="M68.17,48.11c0-1.36,1.12-2.48,2.48-2.48s2.49,1.12,2.49,2.48-1.12,2.49-2.49,2.49-2.48-1.12-2.48-2.49"/><path class="cls-6" d="M68.17,48.11c0-1.36,1.12-2.48,2.48-2.48s2.49,1.12,2.49,2.48-1.12,2.49-2.49,2.49-2.48-1.12-2.48-2.49"/><path class="cls-25" d="M74.1,15.57c0-1.37,1.12-2.49,2.49-2.49s2.48,1.12,2.48,2.49-1.11,2.48-2.48,2.48-2.49-1.12-2.49-2.48"/><path class="cls-6" d="M74.1,15.57c0-1.37,1.12-2.49,2.49-2.49s2.48,1.12,2.48,2.49-1.11,2.48-2.48,2.48-2.49-1.12-2.49-2.48"/><path class="cls-25" d="M67.76,40.44c0-1.37,1.12-2.48,2.49-2.48s2.49,1.11,2.49,2.48-1.12,2.49-2.49,2.49-2.49-1.12-2.49-2.49"/><path class="cls-6" d="M67.76,40.44c0-1.37,1.12-2.48,2.49-2.48s2.49,1.11,2.49,2.48-1.12,2.49-2.49,2.49-2.49-1.12-2.49-2.49"/><path class="cls-25" d="M71.65,40.56c0-1.37,1.12-2.49,2.49-2.49s2.49,1.12,2.49,2.49-1.12,2.49-2.49,2.49-2.49-1.12-2.49-2.49"/><path class="cls-6" d="M71.65,40.56c0-1.37,1.12-2.49,2.49-2.49s2.49,1.12,2.49,2.49-1.12,2.49-2.49,2.49-2.49-1.12-2.49-2.49"/><path class="cls-10" d="M282.54,207.1c0-1.37,1.12-2.49,2.49-2.49s2.49,1.12,2.49,2.49-1.12,2.49-2.49,2.49-2.49-1.12-2.49-2.49"/><path class="cls-6" d="M282.54,207.1c0-1.37,1.12-2.49,2.49-2.49s2.49,1.12,2.49,2.49-1.12,2.49-2.49,2.49-2.49-1.12-2.49-2.49"/><path class="cls-10" d="M292.61,217.28c0-1.37,1.12-2.49,2.49-2.49s2.49,1.12,2.49,2.49-1.12,2.49-2.49,2.49-2.49-1.12-2.49-2.49"/><path class="cls-6" d="M292.61,217.28c0-1.37,1.12-2.49,2.49-2.49s2.49,1.12,2.49,2.49-1.12,2.49-2.49,2.49-2.49-1.12-2.49-2.49"/><path class="cls-10" d="M290.13,200.19c0-1.37,1.12-2.49,2.49-2.49s2.49,1.12,2.49,2.49-1.12,2.49-2.49,2.49-2.49-1.12-2.49-2.49"/><path class="cls-6" d="M290.13,200.19c0-1.37,1.12-2.49,2.49-2.49s2.49,1.12,2.49,2.49-1.12,2.49-2.49,2.49-2.49-1.12-2.49-2.49"/><path class="cls-10" d="M281.78,208.7c0-1.37,1.12-2.49,2.49-2.49s2.49,1.12,2.49,2.49-1.12,2.49-2.49,2.49-2.49-1.12-2.49-2.49"/><path class="cls-6" d="M281.78,208.7c0-1.37,1.12-2.49,2.49-2.49s2.49,1.12,2.49,2.49-1.12,2.49-2.49,2.49-2.49-1.12-2.49-2.49"/><path class="cls-10" d="M282.96,183.25c0-1.37,1.11-2.48,2.48-2.48s2.49,1.11,2.49,2.48-1.12,2.49-2.49,2.49-2.48-1.12-2.48-2.49"/><path class="cls-6" d="M282.96,183.25c0-1.37,1.11-2.48,2.48-2.48s2.49,1.11,2.49,2.48-1.12,2.49-2.49,2.49-2.48-1.12-2.48-2.49"/><path class="cls-10" d="M288.59,183.72c0-1.37,1.12-2.49,2.48-2.49s2.49,1.12,2.49,2.49-1.12,2.49-2.49,2.49-2.48-1.12-2.48-2.49"/><path class="cls-6" d="M288.59,183.72c0-1.37,1.12-2.49,2.48-2.49s2.49,1.12,2.49,2.49-1.12,2.49-2.49,2.49-2.48-1.12-2.48-2.49"/><path class="cls-10" d="M285.25,178.42c0-1.37,1.12-2.49,2.49-2.49s2.49,1.12,2.49,2.49-1.12,2.49-2.49,2.49-2.49-1.12-2.49-2.49"/><path class="cls-6" d="M285.25,178.42c0-1.37,1.12-2.49,2.49-2.49s2.49,1.12,2.49,2.49-1.12,2.49-2.49,2.49-2.49-1.12-2.49-2.49"/><path class="cls-10" d="M281.48,212.43c0-1.37,1.12-2.49,2.49-2.49s2.49,1.12,2.49,2.49-1.12,2.49-2.49,2.49-2.49-1.12-2.49-2.49"/><path class="cls-6" d="M281.48,212.43c0-1.37,1.12-2.49,2.49-2.49s2.49,1.12,2.49,2.49-1.12,2.49-2.49,2.49-2.49-1.12-2.49-2.49"/><path class="cls-10" d="M283.32,178.4c0-1.37,1.12-2.49,2.49-2.49s2.49,1.12,2.49,2.49-1.12,2.49-2.49,2.49-2.49-1.12-2.49-2.49"/><path class="cls-6" d="M283.32,178.4c0-1.37,1.12-2.49,2.49-2.49s2.49,1.12,2.49,2.49-1.12,2.49-2.49,2.49-2.49-1.12-2.49-2.49"/><path class="cls-10" d="M283.4,194.54c0-1.37,1.12-2.49,2.49-2.49s2.49,1.12,2.49,2.49-1.12,2.48-2.49,2.48-2.49-1.11-2.49-2.48"/><path class="cls-6" d="M283.4,194.54c0-1.37,1.12-2.49,2.49-2.49s2.49,1.12,2.49,2.49-1.12,2.48-2.49,2.48-2.49-1.11-2.49-2.48"/><path class="cls-25" d="M94.71,109.71c0-1.37,1.12-2.49,2.49-2.49s2.48,1.12,2.48,2.49-1.12,2.49-2.48,2.49-2.49-1.12-2.49-2.49"/><path class="cls-6" d="M94.71,109.71c0-1.37,1.12-2.49,2.49-2.49s2.48,1.12,2.48,2.49-1.12,2.49-2.48,2.49-2.49-1.12-2.49-2.49"/><path class="cls-25" d="M83.76,19.39c0-1.36,1.12-2.48,2.49-2.48s2.49,1.12,2.49,2.48-1.12,2.49-2.49,2.49-2.49-1.12-2.49-2.49"/><path class="cls-6" d="M83.76,19.39c0-1.36,1.12-2.48,2.49-2.48s2.49,1.12,2.49,2.48-1.12,2.49-2.49,2.49-2.49-1.12-2.49-2.49"/><path class="cls-25" d="M85.96,34.45c0-1.37,1.12-2.49,2.49-2.49s2.48,1.12,2.48,2.49-1.12,2.49-2.48,2.49-2.49-1.12-2.49-2.49"/><path class="cls-6" d="M85.96,34.45c0-1.37,1.12-2.49,2.49-2.49s2.48,1.12,2.48,2.49-1.12,2.49-2.48,2.49-2.49-1.12-2.49-2.49"/><path class="cls-25" d="M83.23,47.04c0-1.36,1.12-2.48,2.49-2.48s2.49,1.12,2.49,2.48-1.12,2.49-2.49,2.49-2.49-1.12-2.49-2.49"/><path class="cls-6" d="M83.23,47.04c0-1.36,1.12-2.48,2.49-2.48s2.49,1.12,2.49,2.48-1.12,2.49-2.49,2.49-2.49-1.12-2.49-2.49"/><path class="cls-25" d="M90.47,40.99c0-1.37,1.12-2.49,2.49-2.49s2.49,1.12,2.49,2.49-1.12,2.48-2.49,2.48-2.49-1.12-2.49-2.48"/><path class="cls-6" d="M90.47,40.99c0-1.37,1.12-2.49,2.49-2.49s2.49,1.12,2.49,2.49-1.12,2.48-2.49,2.48-2.49-1.12-2.49-2.48"/><path class="cls-25" d="M90.69,17.69c0-1.37,1.12-2.49,2.49-2.49s2.49,1.12,2.49,2.49-1.12,2.49-2.49,2.49-2.49-1.12-2.49-2.49"/><path class="cls-6" d="M90.69,17.69c0-1.37,1.12-2.49,2.49-2.49s2.49,1.12,2.49,2.49-1.12,2.49-2.49,2.49-2.49-1.12-2.49-2.49"/><path class="cls-25" d="M93.94,55.42c0-1.37,1.12-2.49,2.49-2.49s2.49,1.12,2.49,2.49-1.12,2.48-2.49,2.48-2.49-1.11-2.49-2.48"/><path class="cls-6" d="M93.94,55.42c0-1.37,1.12-2.49,2.49-2.49s2.49,1.12,2.49,2.49-1.12,2.48-2.49,2.48-2.49-1.11-2.49-2.48"/><path class="cls-25" d="M95.57,47.86c0-1.37,1.12-2.49,2.49-2.49s2.49,1.12,2.49,2.49-1.12,2.49-2.49,2.49-2.49-1.12-2.49-2.49"/><path class="cls-6" d="M95.57,47.86c0-1.37,1.12-2.49,2.49-2.49s2.49,1.12,2.49,2.49-1.12,2.49-2.49,2.49-2.49-1.12-2.49-2.49"/><path class="cls-25" d="M92.26,55.91c0-1.36,1.12-2.48,2.49-2.48s2.48,1.12,2.48,2.48-1.12,2.49-2.48,2.49-2.49-1.12-2.49-2.49"/><path class="cls-6" d="M92.26,55.91c0-1.36,1.12-2.48,2.49-2.48s2.48,1.12,2.48,2.48-1.12,2.49-2.48,2.49-2.49-1.12-2.49-2.49"/><path class="cls-25" d="M93.36,46.14c0-1.36,1.12-2.48,2.49-2.48s2.49,1.12,2.49,2.48-1.12,2.49-2.49,2.49-2.49-1.12-2.49-2.49"/><path class="cls-6" d="M93.36,46.14c0-1.36,1.12-2.48,2.49-2.48s2.49,1.12,2.49,2.48-1.12,2.49-2.49,2.49-2.49-1.12-2.49-2.49"/><path class="cls-25" d="M106.41,22.12c0-1.37,1.12-2.49,2.49-2.49s2.49,1.12,2.49,2.49-1.12,2.49-2.49,2.49-2.49-1.12-2.49-2.49"/><path class="cls-6" d="M106.41,22.12c0-1.37,1.12-2.49,2.49-2.49s2.49,1.12,2.49,2.49-1.12,2.49-2.49,2.49-2.49-1.12-2.49-2.49"/><path class="cls-25" d="M110.72,35.94c0-1.37,1.12-2.49,2.49-2.49s2.48,1.12,2.48,2.49-1.12,2.48-2.48,2.48-2.49-1.12-2.49-2.48"/><path class="cls-6" d="M110.72,35.94c0-1.37,1.12-2.49,2.49-2.49s2.48,1.12,2.48,2.49-1.12,2.48-2.48,2.48-2.49-1.12-2.49-2.48"/><path class="cls-25" d="M103.08,18.12c0-1.37,1.12-2.49,2.49-2.49s2.48,1.12,2.48,2.49-1.12,2.49-2.48,2.49-2.49-1.12-2.49-2.49"/><path class="cls-6" d="M103.08,18.12c0-1.37,1.12-2.49,2.49-2.49s2.48,1.12,2.48,2.49-1.12,2.49-2.48,2.49-2.49-1.12-2.49-2.49"/><path class="cls-25" d="M109.38,98.36c0-1.37,1.12-2.49,2.49-2.49s2.49,1.12,2.49,2.49-1.12,2.49-2.49,2.49-2.49-1.12-2.49-2.49"/><path class="cls-6" d="M109.38,98.36c0-1.37,1.12-2.49,2.49-2.49s2.49,1.12,2.49,2.49-1.12,2.49-2.49,2.49-2.49-1.12-2.49-2.49"/><path class="cls-25" d="M99.95,51.79c0-1.37,1.12-2.49,2.48-2.49s2.49,1.12,2.49,2.49-1.12,2.49-2.49,2.49-2.48-1.12-2.48-2.49"/><path class="cls-6" d="M99.95,51.79c0-1.37,1.12-2.49,2.48-2.49s2.49,1.12,2.49,2.49-1.12,2.49-2.49,2.49-2.48-1.12-2.48-2.49"/><path class="cls-25" d="M106.22,55.49c0-1.37,1.12-2.49,2.49-2.49s2.49,1.12,2.49,2.49-1.12,2.49-2.49,2.49-2.49-1.12-2.49-2.49"/><path class="cls-6" d="M106.22,55.49c0-1.37,1.12-2.49,2.49-2.49s2.49,1.12,2.49,2.49-1.12,2.49-2.49,2.49-2.49-1.12-2.49-2.49"/><path class="cls-25" d="M110.16,41.08c0-1.37,1.12-2.49,2.49-2.49s2.48,1.12,2.48,2.49-1.12,2.49-2.48,2.49-2.49-1.12-2.49-2.49"/><path class="cls-6" d="M110.16,41.08c0-1.37,1.12-2.49,2.49-2.49s2.48,1.12,2.48,2.49-1.12,2.49-2.48,2.49-2.49-1.12-2.49-2.49"/><path class="cls-25" d="M106.64,20.41c0-1.37,1.12-2.49,2.48-2.49s2.49,1.12,2.49,2.49-1.12,2.49-2.49,2.49-2.48-1.12-2.48-2.49"/><path class="cls-6" d="M106.64,20.41c0-1.37,1.12-2.49,2.48-2.49s2.49,1.12,2.49,2.49-1.12,2.49-2.49,2.49-2.48-1.12-2.48-2.49"/><path class="cls-25" d="M114.61,42.92c0-1.37,1.12-2.49,2.49-2.49s2.49,1.12,2.49,2.49-1.12,2.49-2.49,2.49-2.49-1.12-2.49-2.49"/><path class="cls-6" d="M114.61,42.92c0-1.37,1.12-2.49,2.49-2.49s2.49,1.12,2.49,2.49-1.12,2.49-2.49,2.49-2.49-1.12-2.49-2.49"/><path class="cls-25" d="M102.72,55.58c0-1.37,1.12-2.49,2.49-2.49s2.49,1.12,2.49,2.49-1.12,2.49-2.49,2.49-2.49-1.12-2.49-2.49"/><path class="cls-6" d="M102.72,55.58c0-1.37,1.12-2.49,2.49-2.49s2.49,1.12,2.49,2.49-1.12,2.49-2.49,2.49-2.49-1.12-2.49-2.49"/><path class="cls-25" d="M124.94,33.99c0-1.37,1.12-2.49,2.49-2.49s2.49,1.12,2.49,2.49-1.12,2.48-2.49,2.48-2.49-1.12-2.49-2.48"/><path class="cls-6" d="M124.94,33.99c0-1.37,1.12-2.49,2.49-2.49s2.49,1.12,2.49,2.49-1.12,2.48-2.49,2.48-2.49-1.12-2.49-2.48"/><path class="cls-25" d="M119.94,26.64c0-1.37,1.12-2.49,2.49-2.49s2.49,1.12,2.49,2.49-1.12,2.49-2.49,2.49-2.49-1.12-2.49-2.49"/><path class="cls-6" d="M119.94,26.64c0-1.37,1.12-2.49,2.49-2.49s2.49,1.12,2.49,2.49-1.12,2.49-2.49,2.49-2.49-1.12-2.49-2.49"/><path class="cls-25" d="M127.26,56.8c0-1.36,1.12-2.48,2.48-2.48s2.49,1.12,2.49,2.48-1.12,2.49-2.49,2.49-2.48-1.12-2.48-2.49"/><path class="cls-6" d="M127.26,56.8c0-1.36,1.12-2.48,2.48-2.48s2.49,1.12,2.49,2.48-1.12,2.49-2.49,2.49-2.48-1.12-2.48-2.49"/><path class="cls-25" d="M122.41,55.84c0-1.37,1.12-2.49,2.49-2.49s2.49,1.12,2.49,2.49-1.12,2.49-2.49,2.49-2.49-1.12-2.49-2.49"/><path class="cls-6" d="M122.41,55.84c0-1.37,1.12-2.49,2.49-2.49s2.49,1.12,2.49,2.49-1.12,2.49-2.49,2.49-2.49-1.12-2.49-2.49"/><path class="cls-25" d="M127.92,22.65c0-1.37,1.12-2.49,2.49-2.49s2.49,1.12,2.49,2.49-1.12,2.48-2.49,2.48-2.49-1.12-2.49-2.48"/><path class="cls-6" d="M127.92,22.65c0-1.37,1.12-2.49,2.49-2.49s2.49,1.12,2.49,2.49-1.12,2.48-2.49,2.48-2.49-1.12-2.49-2.48"/><path class="cls-25" d="M120.1,52.35c0-1.37,1.12-2.49,2.48-2.49s2.49,1.12,2.49,2.49-1.12,2.49-2.49,2.49-2.48-1.12-2.48-2.49"/><path class="cls-6" d="M120.1,52.35c0-1.37,1.12-2.49,2.48-2.49s2.49,1.12,2.49,2.49-1.12,2.49-2.49,2.49-2.48-1.12-2.48-2.49"/><path class="cls-25" d="M124.63,22.65c0-1.37,1.12-2.49,2.49-2.49s2.49,1.12,2.49,2.49-1.12,2.49-2.49,2.49-2.49-1.12-2.49-2.49"/><path class="cls-6" d="M124.63,22.65c0-1.37,1.12-2.49,2.49-2.49s2.49,1.12,2.49,2.49-1.12,2.49-2.49,2.49-2.49-1.12-2.49-2.49"/><path class="cls-25" d="M133.05,46.4c0-1.37,1.12-2.49,2.48-2.49s2.49,1.12,2.49,2.49-1.12,2.48-2.49,2.48-2.48-1.12-2.48-2.48"/><path class="cls-6" d="M133.05,46.4c0-1.37,1.12-2.49,2.48-2.49s2.49,1.12,2.49,2.49-1.12,2.48-2.49,2.48-2.48-1.12-2.48-2.48"/><path class="cls-25" d="M134.54,17.69c0-1.37,1.12-2.49,2.49-2.49s2.49,1.12,2.49,2.49-1.12,2.49-2.49,2.49-2.49-1.12-2.49-2.49"/><path class="cls-6" d="M134.54,17.69c0-1.37,1.12-2.49,2.49-2.49s2.49,1.12,2.49,2.49-1.12,2.49-2.49,2.49-2.49-1.12-2.49-2.49"/><path class="cls-10" d="M121.38,203.72c0-1.37,1.12-2.49,2.49-2.49s2.48,1.12,2.48,2.49-1.11,2.49-2.48,2.49-2.49-1.12-2.49-2.49"/><path class="cls-6" d="M121.38,203.72c0-1.37,1.12-2.49,2.49-2.49s2.48,1.12,2.48,2.49-1.11,2.49-2.48,2.49-2.49-1.12-2.49-2.49"/><path class="cls-25" d="M151.78,22.07c0-1.37,1.12-2.49,2.48-2.49s2.49,1.12,2.49,2.49-1.12,2.48-2.49,2.48-2.48-1.12-2.48-2.48"/><path class="cls-6" d="M151.78,22.07c0-1.37,1.12-2.49,2.48-2.49s2.49,1.12,2.49,2.49-1.12,2.48-2.49,2.48-2.48-1.12-2.48-2.48"/><path class="cls-10" d="M148.18,185.9c0-1.37,1.12-2.49,2.49-2.49s2.49,1.12,2.49,2.49-1.12,2.49-2.49,2.49-2.49-1.12-2.49-2.49"/><path class="cls-6" d="M148.18,185.9c0-1.37,1.12-2.49,2.49-2.49s2.49,1.12,2.49,2.49-1.12,2.49-2.49,2.49-2.49-1.12-2.49-2.49"/><path class="cls-25" d="M139.19,109.26c0-1.37,1.12-2.49,2.49-2.49s2.49,1.12,2.49,2.49-1.12,2.49-2.49,2.49-2.49-1.12-2.49-2.49"/><path class="cls-6" d="M139.19,109.26c0-1.37,1.12-2.49,2.49-2.49s2.49,1.12,2.49,2.49-1.12,2.49-2.49,2.49-2.49-1.12-2.49-2.49"/><path class="cls-25" d="M152.84,52.14c0-1.36,1.12-2.48,2.49-2.48s2.48,1.12,2.48,2.48-1.12,2.49-2.48,2.49-2.49-1.12-2.49-2.49"/><path class="cls-6" d="M152.84,52.14c0-1.36,1.12-2.48,2.49-2.48s2.48,1.12,2.48,2.48-1.12,2.49-2.48,2.49-2.49-1.12-2.49-2.49"/><path class="cls-25" d="M143.68,121.94c0-1.37,1.12-2.49,2.49-2.49s2.49,1.12,2.49,2.49-1.12,2.49-2.49,2.49-2.49-1.12-2.49-2.49"/><path class="cls-6" d="M143.68,121.94c0-1.37,1.12-2.49,2.49-2.49s2.49,1.12,2.49,2.49-1.12,2.49-2.49,2.49-2.49-1.12-2.49-2.49"/><path class="cls-25" d="M152.15,135.96c0-1.37,1.12-2.49,2.49-2.49s2.49,1.12,2.49,2.49-1.12,2.49-2.49,2.49-2.49-1.12-2.49-2.49"/><path class="cls-6" d="M152.15,135.96c0-1.37,1.12-2.49,2.49-2.49s2.49,1.12,2.49,2.49-1.12,2.49-2.49,2.49-2.49-1.12-2.49-2.49"/><path class="cls-25" d="M152.81,153.53c0-1.37,1.12-2.49,2.49-2.49s2.48,1.12,2.48,2.49-1.12,2.49-2.48,2.49-2.49-1.12-2.49-2.49"/><path class="cls-6" d="M152.81,153.53c0-1.37,1.12-2.49,2.49-2.49s2.48,1.12,2.48,2.49-1.12,2.49-2.48,2.49-2.49-1.12-2.49-2.49"/><path class="cls-25" d="M142.89,24.62c0-1.37,1.12-2.49,2.49-2.49s2.49,1.12,2.49,2.49-1.12,2.49-2.49,2.49-2.49-1.12-2.49-2.49"/><path class="cls-6" d="M142.89,24.62c0-1.37,1.12-2.49,2.49-2.49s2.49,1.12,2.49,2.49-1.12,2.49-2.49,2.49-2.49-1.12-2.49-2.49"/><path class="cls-10" d="M146.59,176.37c0-1.37,1.12-2.49,2.49-2.49s2.49,1.12,2.49,2.49-1.12,2.49-2.49,2.49-2.49-1.12-2.49-2.49"/><path class="cls-6" d="M146.59,176.37c0-1.37,1.12-2.49,2.49-2.49s2.49,1.12,2.49,2.49-1.12,2.49-2.49,2.49-2.49-1.12-2.49-2.49"/><path class="cls-10" d="M146.75,195.08c0-1.37,1.12-2.49,2.49-2.49s2.49,1.12,2.49,2.49-1.12,2.49-2.49,2.49-2.49-1.12-2.49-2.49"/><path class="cls-6" d="M146.75,195.08c0-1.37,1.12-2.49,2.49-2.49s2.49,1.12,2.49,2.49-1.12,2.49-2.49,2.49-2.49-1.12-2.49-2.49"/><path class="cls-25" d="M161.41,146.61c0-1.37,1.12-2.49,2.49-2.49s2.48,1.12,2.48,2.49-1.12,2.49-2.48,2.49-2.49-1.12-2.49-2.49"/><path class="cls-6" d="M161.41,146.61c0-1.37,1.12-2.49,2.49-2.49s2.48,1.12,2.48,2.49-1.12,2.49-2.48,2.49-2.49-1.12-2.49-2.49"/><path class="cls-10" d="M165.31,198.07c0-1.37,1.12-2.49,2.49-2.49s2.49,1.12,2.49,2.49-1.12,2.49-2.49,2.49-2.49-1.12-2.49-2.49"/><path class="cls-6" d="M165.31,198.07c0-1.37,1.12-2.49,2.49-2.49s2.49,1.12,2.49,2.49-1.12,2.49-2.49,2.49-2.49-1.12-2.49-2.49"/><path class="cls-10" d="M168.2,194.65c0-1.37,1.12-2.49,2.49-2.49s2.49,1.12,2.49,2.49-1.12,2.49-2.49,2.49-2.49-1.12-2.49-2.49"/><path class="cls-6" d="M168.2,194.65c0-1.37,1.12-2.49,2.49-2.49s2.49,1.12,2.49,2.49-1.12,2.49-2.49,2.49-2.49-1.12-2.49-2.49"/><path class="cls-10" d="M172.45,196.66c0-1.37,1.12-2.49,2.48-2.49s2.49,1.12,2.49,2.49-1.12,2.48-2.49,2.48-2.48-1.12-2.48-2.48"/><path class="cls-6" d="M172.45,196.66c0-1.37,1.12-2.49,2.48-2.49s2.49,1.12,2.49,2.49-1.12,2.48-2.49,2.48-2.48-1.12-2.48-2.48"/><path class="cls-10" d="M168.96,184.79c0-1.37,1.12-2.49,2.49-2.49s2.49,1.12,2.49,2.49-1.12,2.49-2.49,2.49-2.49-1.12-2.49-2.49"/><path class="cls-6" d="M168.96,184.79c0-1.37,1.12-2.49,2.49-2.49s2.49,1.12,2.49,2.49-1.12,2.49-2.49,2.49-2.49-1.12-2.49-2.49"/><path class="cls-10" d="M170.57,186.39c0-1.36,1.12-2.48,2.49-2.48s2.49,1.12,2.49,2.48-1.12,2.49-2.49,2.49-2.49-1.12-2.49-2.49"/><path class="cls-6" d="M170.57,186.39c0-1.36,1.12-2.48,2.49-2.48s2.49,1.12,2.49,2.48-1.12,2.49-2.49,2.49-2.49-1.12-2.49-2.49"/><path class="cls-10" d="M160.15,202.82c0-1.37,1.12-2.49,2.49-2.49s2.49,1.12,2.49,2.49-1.12,2.48-2.49,2.48-2.49-1.12-2.49-2.48"/><path class="cls-6" d="M160.15,202.82c0-1.37,1.12-2.49,2.49-2.49s2.49,1.12,2.49,2.49-1.12,2.48-2.49,2.48-2.49-1.12-2.49-2.48"/><path class="cls-10" d="M173.69,209.85c0-1.37,1.11-2.48,2.48-2.48s2.49,1.11,2.49,2.48-1.12,2.49-2.49,2.49-2.48-1.12-2.48-2.49"/><path class="cls-6" d="M173.69,209.85c0-1.37,1.11-2.48,2.48-2.48s2.49,1.11,2.49,2.48-1.12,2.49-2.49,2.49-2.48-1.12-2.48-2.49"/><path class="cls-25" d="M165.42,129.12c0-1.37,1.12-2.49,2.49-2.49s2.49,1.12,2.49,2.49-1.12,2.49-2.49,2.49-2.49-1.12-2.49-2.49"/><path class="cls-6" d="M165.42,129.12c0-1.37,1.12-2.49,2.49-2.49s2.49,1.12,2.49,2.49-1.12,2.49-2.49,2.49-2.49-1.12-2.49-2.49"/><path class="cls-25" d="M163.19,43.84c0-1.37,1.12-2.49,2.49-2.49s2.49,1.12,2.49,2.49-1.12,2.49-2.49,2.49-2.49-1.12-2.49-2.49"/><path class="cls-6" d="M163.19,43.84c0-1.37,1.12-2.49,2.49-2.49s2.49,1.12,2.49,2.49-1.12,2.49-2.49,2.49-2.49-1.12-2.49-2.49"/><path class="cls-10" d="M180.1,198.58c0-1.37,1.12-2.49,2.48-2.49s2.49,1.12,2.49,2.49-1.12,2.48-2.49,2.48-2.48-1.12-2.48-2.48"/><path class="cls-6" d="M180.1,198.58c0-1.37,1.12-2.49,2.48-2.49s2.49,1.12,2.49,2.49-1.12,2.48-2.49,2.48-2.48-1.12-2.48-2.48"/><path class="cls-10" d="M189.94,216.83c0-1.37,1.12-2.49,2.49-2.49s2.48,1.12,2.48,2.49-1.12,2.49-2.48,2.49-2.49-1.12-2.49-2.49"/><path class="cls-6" d="M189.94,216.83c0-1.37,1.12-2.49,2.49-2.49s2.48,1.12,2.48,2.49-1.12,2.49-2.48,2.49-2.49-1.12-2.49-2.49"/><path class="cls-10" d="M193.84,176.74c0-1.37,1.12-2.49,2.49-2.49s2.49,1.12,2.49,2.49-1.12,2.49-2.49,2.49-2.49-1.12-2.49-2.49"/><path class="cls-6" d="M193.84,176.74c0-1.37,1.12-2.49,2.49-2.49s2.49,1.12,2.49,2.49-1.12,2.49-2.49,2.49-2.49-1.12-2.49-2.49"/><path class="cls-10" d="M179.07,208.91c0-1.37,1.12-2.49,2.49-2.49s2.49,1.12,2.49,2.49-1.12,2.49-2.49,2.49-2.49-1.12-2.49-2.49"/><path class="cls-6" d="M179.07,208.91c0-1.37,1.12-2.49,2.49-2.49s2.49,1.12,2.49,2.49-1.12,2.49-2.49,2.49-2.49-1.12-2.49-2.49"/><path class="cls-10" d="M183.8,199.5c0-1.37,1.12-2.49,2.48-2.49s2.49,1.12,2.49,2.49-1.12,2.49-2.49,2.49-2.48-1.12-2.48-2.49"/><path class="cls-6" d="M183.8,199.5c0-1.37,1.12-2.49,2.48-2.49s2.49,1.12,2.49,2.49-1.12,2.49-2.49,2.49-2.48-1.12-2.48-2.49"/><path class="cls-10" d="M188.85,199.82c0-1.37,1.12-2.49,2.49-2.49s2.49,1.12,2.49,2.49-1.12,2.48-2.49,2.48-2.49-1.12-2.49-2.48"/><path class="cls-6" d="M188.85,199.82c0-1.37,1.12-2.49,2.49-2.49s2.49,1.12,2.49,2.49-1.12,2.48-2.49,2.48-2.49-1.12-2.49-2.48"/><path class="cls-10" d="M191.03,214.9c0-1.37,1.12-2.49,2.49-2.49s2.49,1.12,2.49,2.49-1.12,2.48-2.49,2.48-2.49-1.12-2.49-2.48"/><path class="cls-6" d="M191.03,214.9c0-1.37,1.12-2.49,2.49-2.49s2.49,1.12,2.49,2.49-1.12,2.48-2.49,2.48-2.49-1.12-2.49-2.48"/><path class="cls-10" d="M210.21,202.34c0-1.37,1.12-2.49,2.49-2.49s2.49,1.12,2.49,2.49-1.12,2.49-2.49,2.49-2.49-1.12-2.49-2.49"/><path class="cls-6" d="M210.21,202.34c0-1.37,1.12-2.49,2.49-2.49s2.49,1.12,2.49,2.49-1.12,2.49-2.49,2.49-2.49-1.12-2.49-2.49"/><path class="cls-10" d="M206.49,216.21c0-1.37,1.12-2.49,2.49-2.49s2.49,1.12,2.49,2.49-1.12,2.49-2.49,2.49-2.49-1.12-2.49-2.49"/><path class="cls-6" d="M206.49,216.21c0-1.37,1.12-2.49,2.49-2.49s2.49,1.12,2.49,2.49-1.12,2.49-2.49,2.49-2.49-1.12-2.49-2.49"/><path class="cls-10" d="M198.54,179.35c0-1.37,1.12-2.49,2.49-2.49s2.49,1.12,2.49,2.49-1.12,2.49-2.49,2.49-2.49-1.12-2.49-2.49"/><path class="cls-6" d="M198.54,179.35c0-1.37,1.12-2.49,2.49-2.49s2.49,1.12,2.49,2.49-1.12,2.49-2.49,2.49-2.49-1.12-2.49-2.49"/><path class="cls-10" d="M213.32,208.57c0-1.37,1.12-2.49,2.49-2.49s2.49,1.12,2.49,2.49-1.12,2.49-2.49,2.49-2.49-1.12-2.49-2.49"/><path class="cls-6" d="M213.32,208.57c0-1.37,1.12-2.49,2.49-2.49s2.49,1.12,2.49,2.49-1.12,2.49-2.49,2.49-2.49-1.12-2.49-2.49"/><path class="cls-10" d="M203.81,177.84c0-1.37,1.11-2.49,2.48-2.49s2.49,1.12,2.49,2.49-1.12,2.49-2.49,2.49-2.48-1.12-2.48-2.49"/><path class="cls-6" d="M203.81,177.84c0-1.37,1.11-2.49,2.48-2.49s2.49,1.12,2.49,2.49-1.12,2.49-2.49,2.49-2.48-1.12-2.48-2.49"/><path class="cls-10" d="M212.29,193.08c0-1.37,1.12-2.49,2.49-2.49s2.49,1.12,2.49,2.49-1.12,2.49-2.49,2.49-2.49-1.12-2.49-2.49"/><path class="cls-6" d="M212.29,193.08c0-1.37,1.12-2.49,2.49-2.49s2.49,1.12,2.49,2.49-1.12,2.49-2.49,2.49-2.49-1.12-2.49-2.49"/><path class="cls-10" d="M211.61,201.45c0-1.37,1.12-2.49,2.49-2.49s2.49,1.12,2.49,2.49-1.12,2.49-2.49,2.49-2.49-1.12-2.49-2.49"/><path class="cls-6" d="M211.61,201.45c0-1.37,1.12-2.49,2.49-2.49s2.49,1.12,2.49,2.49-1.12,2.49-2.49,2.49-2.49-1.12-2.49-2.49"/><path class="cls-10" d="M210.94,206.28c0-1.37,1.12-2.49,2.49-2.49s2.49,1.12,2.49,2.49-1.12,2.49-2.49,2.49-2.49-1.12-2.49-2.49"/><path class="cls-6" d="M210.94,206.28c0-1.37,1.12-2.49,2.49-2.49s2.49,1.12,2.49,2.49-1.12,2.49-2.49,2.49-2.49-1.12-2.49-2.49"/><path class="cls-25" d="M199.66,147.74c0-1.37,1.12-2.49,2.49-2.49s2.49,1.12,2.49,2.49-1.12,2.49-2.49,2.49-2.49-1.12-2.49-2.49"/><path class="cls-6" d="M199.66,147.74c0-1.37,1.12-2.49,2.49-2.49s2.49,1.12,2.49,2.49-1.12,2.49-2.49,2.49-2.49-1.12-2.49-2.49"/><path class="cls-10" d="M211.86,194.97c0-1.36,1.12-2.48,2.49-2.48s2.49,1.12,2.49,2.48-1.12,2.49-2.49,2.49-2.49-1.12-2.49-2.49"/><path class="cls-6" d="M211.86,194.97c0-1.36,1.12-2.48,2.49-2.48s2.49,1.12,2.49,2.48-1.12,2.49-2.49,2.49-2.49-1.12-2.49-2.49"/><path class="cls-10" d="M219.28,205.59c0-1.37,1.12-2.49,2.49-2.49s2.49,1.12,2.49,2.49-1.12,2.48-2.49,2.48-2.49-1.12-2.49-2.48"/><path class="cls-6" d="M219.28,205.59c0-1.37,1.12-2.49,2.49-2.49s2.49,1.12,2.49,2.49-1.12,2.48-2.49,2.48-2.49-1.12-2.49-2.48"/><path class="cls-10" d="M226.71,211.43c0-1.37,1.12-2.49,2.49-2.49s2.49,1.12,2.49,2.49-1.12,2.49-2.49,2.49-2.49-1.12-2.49-2.49"/><path class="cls-6" d="M226.71,211.43c0-1.37,1.12-2.49,2.49-2.49s2.49,1.12,2.49,2.49-1.12,2.49-2.49,2.49-2.49-1.12-2.49-2.49"/><path class="cls-10" d="M228,189.99c0-1.37,1.12-2.49,2.49-2.49s2.48,1.12,2.48,2.49-1.12,2.49-2.48,2.49-2.49-1.12-2.49-2.49"/><path class="cls-6" d="M228,189.99c0-1.37,1.12-2.49,2.49-2.49s2.48,1.12,2.48,2.49-1.12,2.49-2.48,2.49-2.49-1.12-2.49-2.49"/><path class="cls-10" d="M223,193.51c0-1.37,1.12-2.49,2.49-2.49s2.49,1.12,2.49,2.49-1.12,2.49-2.49,2.49-2.49-1.12-2.49-2.49"/><path class="cls-6" d="M223,193.51c0-1.37,1.12-2.49,2.49-2.49s2.49,1.12,2.49,2.49-1.12,2.49-2.49,2.49-2.49-1.12-2.49-2.49"/><path class="cls-10" d="M229.22,212.86c0-1.37,1.12-2.49,2.49-2.49s2.49,1.12,2.49,2.49-1.12,2.48-2.49,2.48-2.49-1.11-2.49-2.48"/><path class="cls-6" d="M229.22,212.86c0-1.37,1.12-2.49,2.49-2.49s2.49,1.12,2.49,2.49-1.12,2.48-2.49,2.48-2.49-1.11-2.49-2.48"/><path class="cls-10" d="M223.33,190.03c0-1.37,1.12-2.49,2.49-2.49s2.49,1.12,2.49,2.49-1.12,2.48-2.49,2.48-2.49-1.12-2.49-2.48"/><path class="cls-6" d="M223.33,190.03c0-1.37,1.12-2.49,2.49-2.49s2.49,1.12,2.49,2.49-1.12,2.48-2.49,2.48-2.49-1.12-2.49-2.48"/><path class="cls-10" d="M219.64,201c0-1.37,1.12-2.49,2.49-2.49s2.49,1.12,2.49,2.49-1.12,2.49-2.49,2.49-2.49-1.12-2.49-2.49"/><path class="cls-6" d="M219.64,201c0-1.37,1.12-2.49,2.49-2.49s2.49,1.12,2.49,2.49-1.12,2.49-2.49,2.49-2.49-1.12-2.49-2.49"/><path class="cls-10" d="M220.82,206.71c0-1.37,1.12-2.49,2.49-2.49s2.48,1.12,2.48,2.49-1.12,2.49-2.48,2.49-2.49-1.12-2.49-2.49"/><path class="cls-6" d="M220.82,206.71c0-1.37,1.12-2.49,2.49-2.49s2.48,1.12,2.48,2.49-1.12,2.49-2.48,2.49-2.49-1.12-2.49-2.49"/><path class="cls-10" d="M228.76,178.18c0-1.37,1.12-2.49,2.49-2.49s2.49,1.12,2.49,2.49-1.12,2.49-2.49,2.49-2.49-1.12-2.49-2.49"/><path class="cls-6" d="M228.76,178.18c0-1.37,1.12-2.49,2.49-2.49s2.49,1.12,2.49,2.49-1.12,2.49-2.49,2.49-2.49-1.12-2.49-2.49"/><path class="cls-10" d="M227.07,186.4c0-1.37,1.12-2.49,2.49-2.49s2.48,1.12,2.48,2.49-1.12,2.49-2.48,2.49-2.49-1.12-2.49-2.49"/><path class="cls-6" d="M227.07,186.4c0-1.37,1.12-2.49,2.49-2.49s2.48,1.12,2.48,2.49-1.12,2.49-2.48,2.49-2.49-1.12-2.49-2.49"/><polyline class="cls-2" points="70.55 40.2 72.74 39.28 74.94 38.38 77.13 37.52 79.32 36.74 81.51 36.04 83.7 35.45 85.89 34.99 88.08 34.69 90.27 34.57 92.46 34.64 94.65 34.93 96.84 35.44 99.03 36.17 101.23 37.15 103.42 38.39 105.61 39.88 107.8 41.65 109.99 43.7 112.18 46.05 114.37 48.67 116.56 51.57 118.75 54.73 120.94 58.13 123.13 61.77 125.32 65.64 127.52 69.71 129.71 73.98 131.9 78.45 134.09 83.07 136.28 87.83 138.47 92.71 140.66 97.67 142.85 102.7 145.04 107.77 147.23 112.85 149.42 117.92 151.61 122.96 153.81 127.94 156 132.85 158.19 137.66 160.38 142.36 162.57 146.92 164.76 151.33 166.95 155.57 169.14 159.61 171.33 163.44 173.52 167.06 175.71 170.46 177.9 173.64 180.1 176.59 182.29 179.32 184.48 181.83 186.67 184.1 188.86 186.15 191.05 187.96 193.24 189.55 195.43 190.93 197.62 192.12 199.81 193.13 202 193.97 204.19 194.65 206.39 195.19 208.58 195.6 210.77 195.9 212.96 196.09 215.15 196.2 217.34 196.24 219.53 196.21 221.72 196.15 223.91 196.05 226.1 195.94 228.29 195.83 230.48 195.73 232.67 195.64 234.87 195.57 237.06 195.51 239.25 195.46 241.44 195.42 243.63 195.39 245.82 195.37 248.01 195.36 250.2 195.36 252.39 195.37 254.58 195.39 256.77 195.41 258.96 195.44 261.16 195.48 263.35 195.53 265.54 195.58 267.73 195.63 269.92 195.69 272.11 195.76 274.3 195.83 276.49 195.9 278.68 195.97 280.87 196.04 283.06 196.12 285.25 196.2 287.45 196.28"/><rect class="cls-3" x="55.28" y="5.48" width="251.24" height="221.89"/></g><text class="cls-12" transform="translate(30.45 201.43)"><tspan x="0" y="0">0</tspan></text><text class="cls-12" transform="translate(30.45 148.18)"><tspan x="0" y="0">1</tspan></text><text class="cls-12" transform="translate(30.45 94.93)"><tspan x="0" y="0">2</tspan></text><text class="cls-12" transform="translate(30.45 41.67)"><tspan x="0" y="0">3</tspan></text><line class="cls-4" x1="48.2" y1="196.41" x2="55.28" y2="196.41"/><line class="cls-4" x1="48.2" y1="143.15" x2="55.28" y2="143.15"/><line class="cls-4" x1="48.2" y1="89.9" x2="55.28" y2="89.9"/><line class="cls-4" x1="48.2" y1="36.65" x2="55.28" y2="36.65"/><line class="cls-4" x1="100.13" y1="234.46" x2="100.13" y2="227.37"/><line class="cls-4" x1="149.42" y1="234.46" x2="149.42" y2="227.37"/><line class="cls-4" x1="198.72" y1="234.46" x2="198.72" y2="227.37"/><line class="cls-4" x1="248.01" y1="234.46" x2="248.01" y2="227.37"/><line class="cls-4" x1="297.3" y1="234.46" x2="297.3" y2="227.37"/><text class="cls-12" transform="translate(92.35 254.47)"><tspan x="0" y="0">10</tspan></text><text class="cls-12" transform="translate(141.64 254.47)"><tspan x="0" y="0">20</tspan></text><text class="cls-12" transform="translate(190.93 254.47)"><tspan x="0" y="0">30</tspan></text><text class="cls-12" transform="translate(240.23 254.47)"><tspan x="0" y="0">40</tspan></text><text class="cls-12" transform="translate(289.52 254.47)"><tspan x="0" y="0">50</tspan></text><text class="cls-11" transform="translate(151.13 279)"><tspan x="0" y="0">Time (h)</tspan></text><text class="cls-11" transform="translate(16.97 141.76) rotate(-90)"><tspan x="0" y="0">Activity</tspan></text><text class="cls-13" transform="translate(5.05 15.08)"><tspan x="0" y="0">A</tspan></text><g class="cls-17"><rect class="cls-19" x="312" width="312" height="288"/><rect class="cls-5" x="312" width="312" height="288"/></g><g class="cls-15"><rect class="cls-19" x="367.28" y="5.48" width="251.24" height="221.89"/><line class="cls-9" x1="367.28" y1="222.53" x2="618.52" y2="222.53"/><line class="cls-9" x1="367.28" y1="180.19" x2="618.52" y2="180.19"/><line class="cls-9" x1="367.28" y1="137.84" x2="618.52" y2="137.84"/><line class="cls-9" x1="367.28" y1="95.49" x2="618.52" y2="95.49"/><line class="cls-9" x1="367.28" y1="53.14" x2="618.52" y2="53.14"/><line class="cls-9" x1="367.28" y1="10.8" x2="618.52" y2="10.8"/><line class="cls-9" x1="389.32" y1="227.37" x2="389.32" y2="5.48"/><line class="cls-9" x1="438.24" y1="227.37" x2="438.24" y2="5.48"/><line class="cls-9" x1="487.15" y1="227.37" x2="487.15" y2="5.48"/><line class="cls-9" x1="536.07" y1="227.37" x2="536.07" y2="5.48"/><line class="cls-9" x1="584.98" y1="227.37" x2="584.98" y2="5.48"/><line class="cls-8" x1="367.28" y1="201.36" x2="618.52" y2="201.36"/><line class="cls-8" x1="367.28" y1="159.01" x2="618.52" y2="159.01"/><line class="cls-8" x1="367.28" y1="116.67" x2="618.52" y2="116.67"/><line class="cls-8" x1="367.28" y1="74.32" x2="618.52" y2="74.32"/><line class="cls-8" x1="367.28" y1="31.97" x2="618.52" y2="31.97"/><line class="cls-8" x1="413.78" y1="227.37" x2="413.78" y2="5.48"/><line class="cls-8" x1="462.7" y1="227.37" x2="462.7" y2="5.48"/><line class="cls-8" x1="511.61" y1="227.37" x2="511.61" y2="5.48"/><line class="cls-8" x1="560.53" y1="227.37" x2="560.53" y2="5.48"/><line class="cls-8" x1="609.44" y1="227.37" x2="609.44" y2="5.48"/><path class="cls-25" d="M387.69,186.3c0-1.37,1.12-2.49,2.49-2.49s2.49,1.12,2.49,2.49-1.12,2.49-2.49,2.49-2.49-1.12-2.49-2.49"/><path class="cls-6" d="M387.69,186.3c0-1.37,1.12-2.49,2.49-2.49s2.49,1.12,2.49,2.49-1.12,2.49-2.49,2.49-2.49-1.12-2.49-2.49"/><path class="cls-25" d="M388.76,87.42c0-1.37,1.12-2.49,2.49-2.49s2.49,1.12,2.49,2.49-1.12,2.49-2.49,2.49-2.49-1.12-2.49-2.49"/><path class="cls-6" d="M388.76,87.42c0-1.37,1.12-2.49,2.49-2.49s2.49,1.12,2.49,2.49-1.12,2.49-2.49,2.49-2.49-1.12-2.49-2.49"/><path class="cls-25" d="M387.42,216.47c0-1.37,1.12-2.49,2.48-2.49s2.49,1.12,2.49,2.49-1.12,2.49-2.49,2.49-2.48-1.12-2.48-2.49"/><path class="cls-6" d="M387.42,216.47c0-1.37,1.12-2.49,2.48-2.49s2.49,1.12,2.49,2.49-1.12,2.49-2.49,2.49-2.48-1.12-2.48-2.49"/><path class="cls-25" d="M377.51,192.47c0-1.36,1.12-2.48,2.49-2.48s2.49,1.12,2.49,2.48-1.12,2.49-2.49,2.49-2.49-1.12-2.49-2.49"/><path class="cls-6" d="M377.51,192.47c0-1.36,1.12-2.48,2.49-2.48s2.49,1.12,2.49,2.48-1.12,2.49-2.49,2.49-2.49-1.12-2.49-2.49"/><path class="cls-25" d="M389.26,190.92c0-1.37,1.12-2.49,2.49-2.49s2.49,1.12,2.49,2.49-1.12,2.49-2.49,2.49-2.49-1.12-2.49-2.49"/><path class="cls-6" d="M389.26,190.92c0-1.37,1.12-2.49,2.49-2.49s2.49,1.12,2.49,2.49-1.12,2.49-2.49,2.49-2.49-1.12-2.49-2.49"/><path class="cls-25" d="M385.48,186.63c0-1.37,1.12-2.49,2.49-2.49s2.49,1.12,2.49,2.49-1.12,2.49-2.49,2.49-2.49-1.12-2.49-2.49"/><path class="cls-6" d="M385.48,186.63c0-1.37,1.12-2.49,2.49-2.49s2.49,1.12,2.49,2.49-1.12,2.49-2.49,2.49-2.49-1.12-2.49-2.49"/><path class="cls-25" d="M386.82,68.57c0-1.37,1.12-2.49,2.49-2.49s2.49,1.12,2.49,2.49-1.12,2.48-2.49,2.48-2.49-1.11-2.49-2.48"/><path class="cls-6" d="M386.82,68.57c0-1.37,1.12-2.49,2.49-2.49s2.49,1.12,2.49,2.49-1.12,2.48-2.49,2.48-2.49-1.11-2.49-2.48"/><path class="cls-25" d="M376.29,202.17c0-1.37,1.12-2.49,2.48-2.49s2.49,1.12,2.49,2.49-1.12,2.49-2.49,2.49-2.48-1.12-2.48-2.49"/><path class="cls-6" d="M376.29,202.17c0-1.37,1.12-2.49,2.48-2.49s2.49,1.12,2.49,2.49-1.12,2.49-2.49,2.49-2.48-1.12-2.48-2.49"/><path class="cls-25" d="M376.21,217.28c0-1.37,1.12-2.49,2.49-2.49s2.49,1.12,2.49,2.49-1.12,2.49-2.49,2.49-2.49-1.12-2.49-2.49"/><path class="cls-6" d="M376.21,217.28c0-1.37,1.12-2.49,2.49-2.49s2.49,1.12,2.49,2.49-1.12,2.49-2.49,2.49-2.49-1.12-2.49-2.49"/><path class="cls-10" d="M592.61,25.56c0-1.37,1.12-2.49,2.49-2.49s2.48,1.12,2.48,2.49-1.12,2.49-2.48,2.49-2.49-1.12-2.49-2.49"/><path class="cls-6" d="M592.61,25.56c0-1.37,1.12-2.49,2.49-2.49s2.48,1.12,2.48,2.49-1.12,2.49-2.48,2.49-2.49-1.12-2.49-2.49"/><path class="cls-10" d="M599.11,44.16c0-1.37,1.12-2.49,2.49-2.49s2.49,1.12,2.49,2.49-1.12,2.49-2.49,2.49-2.49-1.12-2.49-2.49"/><path class="cls-6" d="M599.11,44.16c0-1.37,1.12-2.49,2.49-2.49s2.49,1.12,2.49,2.49-1.12,2.49-2.49,2.49-2.49-1.12-2.49-2.49"/><path class="cls-10" d="M602.69,45.04c0-1.36,1.12-2.48,2.49-2.48s2.49,1.12,2.49,2.48-1.12,2.49-2.49,2.49-2.49-1.12-2.49-2.49"/><path class="cls-6" d="M602.69,45.04c0-1.36,1.12-2.48,2.49-2.48s2.49,1.12,2.49,2.48-1.12,2.49-2.49,2.49-2.49-1.12-2.49-2.49"/><path class="cls-10" d="M604.61,32.31c0-1.37,1.12-2.49,2.49-2.49s2.49,1.12,2.49,2.49-1.12,2.48-2.49,2.48-2.49-1.12-2.49-2.48"/><path class="cls-6" d="M604.61,32.31c0-1.37,1.12-2.49,2.49-2.49s2.49,1.12,2.49,2.49-1.12,2.48-2.49,2.48-2.49-1.12-2.49-2.48"/><path class="cls-10" d="M602.53,46.81c0-1.37,1.12-2.49,2.49-2.49s2.49,1.12,2.49,2.49-1.12,2.49-2.49,2.49-2.49-1.12-2.49-2.49"/><path class="cls-6" d="M602.53,46.81c0-1.37,1.12-2.49,2.49-2.49s2.49,1.12,2.49,2.49-1.12,2.49-2.49,2.49-2.49-1.12-2.49-2.49"/><path class="cls-10" d="M602.88,28.57c0-1.37,1.12-2.48,2.49-2.48s2.49,1.11,2.49,2.48-1.12,2.49-2.49,2.49-2.49-1.12-2.49-2.49"/><path class="cls-6" d="M602.88,28.57c0-1.37,1.12-2.48,2.49-2.48s2.49,1.11,2.49,2.48-1.12,2.49-2.49,2.49-2.49-1.12-2.49-2.49"/><path class="cls-10" d="M593.1,26.1c0-1.37,1.12-2.49,2.48-2.49s2.49,1.12,2.49,2.49-1.12,2.49-2.49,2.49-2.48-1.12-2.48-2.49"/><path class="cls-6" d="M593.1,26.1c0-1.37,1.12-2.49,2.48-2.49s2.49,1.12,2.49,2.49-1.12,2.49-2.49,2.49-2.48-1.12-2.48-2.49"/><path class="cls-10" d="M591.51,20.54c0-1.37,1.12-2.49,2.48-2.49s2.49,1.12,2.49,2.49-1.12,2.49-2.49,2.49-2.48-1.12-2.48-2.49"/><path class="cls-6" d="M591.51,20.54c0-1.37,1.12-2.49,2.48-2.49s2.49,1.12,2.49,2.49-1.12,2.49-2.49,2.49-2.48-1.12-2.48-2.49"/><path class="cls-10" d="M604.29,18.25c0-1.37,1.12-2.49,2.49-2.49s2.48,1.12,2.48,2.49-1.12,2.49-2.48,2.49-2.49-1.12-2.49-2.49"/><path class="cls-6" d="M604.29,18.25c0-1.37,1.12-2.49,2.49-2.49s2.48,1.12,2.48,2.49-1.12,2.49-2.48,2.49-2.49-1.12-2.49-2.49"/><path class="cls-10" d="M593.12,41.81c0-1.37,1.12-2.49,2.49-2.49s2.49,1.12,2.49,2.49-1.12,2.49-2.49,2.49-2.49-1.12-2.49-2.49"/><path class="cls-6" d="M593.12,41.81c0-1.37,1.12-2.49,2.49-2.49s2.49,1.12,2.49,2.49-1.12,2.49-2.49,2.49-2.49-1.12-2.49-2.49"/><path class="cls-25" d="M402.06,202.68c0-1.37,1.12-2.49,2.49-2.49s2.49,1.12,2.49,2.49-1.12,2.49-2.49,2.49-2.49-1.12-2.49-2.49"/><path class="cls-6" d="M402.06,202.68c0-1.37,1.12-2.49,2.49-2.49s2.49,1.12,2.49,2.49-1.12,2.49-2.49,2.49-2.49-1.12-2.49-2.49"/><path class="cls-25" d="M407.22,192.78c0-1.36,1.12-2.48,2.49-2.48s2.49,1.12,2.49,2.48-1.12,2.49-2.49,2.49-2.49-1.12-2.49-2.49"/><path class="cls-6" d="M407.22,192.78c0-1.36,1.12-2.48,2.49-2.48s2.49,1.12,2.49,2.48-1.12,2.49-2.49,2.49-2.49-1.12-2.49-2.49"/><path class="cls-25" d="M409.27,200.14c0-1.37,1.12-2.49,2.49-2.49s2.49,1.12,2.49,2.49-1.12,2.49-2.49,2.49-2.49-1.12-2.49-2.49"/><path class="cls-6" d="M409.27,200.14c0-1.37,1.12-2.49,2.49-2.49s2.49,1.12,2.49,2.49-1.12,2.49-2.49,2.49-2.49-1.12-2.49-2.49"/><path class="cls-25" d="M398.46,185.41c0-1.37,1.12-2.49,2.49-2.49s2.48,1.12,2.48,2.49-1.12,2.49-2.48,2.49-2.49-1.12-2.49-2.49"/><path class="cls-6" d="M398.46,185.41c0-1.37,1.12-2.49,2.49-2.49s2.48,1.12,2.48,2.49-1.12,2.49-2.48,2.49-2.49-1.12-2.49-2.49"/><path class="cls-25" d="M403.75,208.97c0-1.36,1.12-2.48,2.49-2.48s2.48,1.12,2.48,2.48-1.12,2.49-2.48,2.49-2.49-1.12-2.49-2.49"/><path class="cls-6" d="M403.75,208.97c0-1.36,1.12-2.48,2.49-2.48s2.48,1.12,2.48,2.48-1.12,2.49-2.48,2.49-2.49-1.12-2.49-2.49"/><path class="cls-25" d="M407.88,185.57c0-1.37,1.12-2.49,2.48-2.49s2.49,1.12,2.49,2.49-1.12,2.48-2.49,2.48-2.48-1.12-2.48-2.48"/><path class="cls-6" d="M407.88,185.57c0-1.37,1.12-2.49,2.48-2.49s2.49,1.12,2.49,2.49-1.12,2.48-2.49,2.48-2.48-1.12-2.48-2.48"/><path class="cls-25" d="M398.38,175.41c0-1.37,1.12-2.48,2.49-2.48s2.49,1.11,2.49,2.48-1.12,2.49-2.49,2.49-2.49-1.12-2.49-2.49"/><path class="cls-6" d="M398.38,175.41c0-1.37,1.12-2.48,2.49-2.48s2.49,1.11,2.49,2.48-1.12,2.49-2.49,2.49-2.49-1.12-2.49-2.49"/><path class="cls-25" d="M403.89,188.35c0-1.37,1.12-2.49,2.49-2.49s2.49,1.12,2.49,2.49-1.12,2.49-2.49,2.49-2.49-1.12-2.49-2.49"/><path class="cls-6" d="M403.89,188.35c0-1.37,1.12-2.49,2.49-2.49s2.49,1.12,2.49,2.49-1.12,2.49-2.49,2.49-2.49-1.12-2.49-2.49"/><path class="cls-25" d="M406.69,210.33c0-1.37,1.12-2.49,2.49-2.49s2.49,1.12,2.49,2.49-1.12,2.49-2.49,2.49-2.49-1.12-2.49-2.49"/><path class="cls-6" d="M406.69,210.33c0-1.37,1.12-2.49,2.49-2.49s2.49,1.12,2.49,2.49-1.12,2.49-2.49,2.49-2.49-1.12-2.49-2.49"/><path class="cls-25" d="M398.04,201.51c0-1.37,1.12-2.49,2.49-2.49s2.49,1.12,2.49,2.49-1.12,2.49-2.49,2.49-2.49-1.12-2.49-2.49"/><path class="cls-6" d="M398.04,201.51c0-1.37,1.12-2.49,2.49-2.49s2.49,1.12,2.49,2.49-1.12,2.49-2.49,2.49-2.49-1.12-2.49-2.49"/><path class="cls-25" d="M427.57,200.21c0-1.36,1.12-2.48,2.49-2.48s2.49,1.12,2.49,2.48-1.12,2.49-2.49,2.49-2.49-1.12-2.49-2.49"/><path class="cls-6" d="M427.57,200.21c0-1.36,1.12-2.48,2.49-2.48s2.49,1.12,2.49,2.48-1.12,2.49-2.49,2.49-2.49-1.12-2.49-2.49"/><path class="cls-25" d="M419.15,214.71c0-1.36,1.12-2.48,2.49-2.48s2.49,1.12,2.49,2.48-1.12,2.49-2.49,2.49-2.49-1.12-2.49-2.49"/><path class="cls-6" d="M419.15,214.71c0-1.36,1.12-2.48,2.49-2.48s2.49,1.12,2.49,2.48-1.12,2.49-2.49,2.49-2.49-1.12-2.49-2.49"/><path class="cls-25" d="M421.32,151.73c0-1.37,1.12-2.49,2.49-2.49s2.49,1.12,2.49,2.49-1.12,2.49-2.49,2.49-2.49-1.12-2.49-2.49"/><path class="cls-6" d="M421.32,151.73c0-1.37,1.12-2.49,2.49-2.49s2.49,1.12,2.49,2.49-1.12,2.49-2.49,2.49-2.49-1.12-2.49-2.49"/><path class="cls-25" d="M421.97,165.23c0-1.37,1.12-2.49,2.49-2.49s2.48,1.12,2.48,2.49-1.12,2.49-2.48,2.49-2.49-1.12-2.49-2.49"/><path class="cls-6" d="M421.97,165.23c0-1.37,1.12-2.49,2.49-2.49s2.48,1.12,2.48,2.49-1.12,2.49-2.48,2.49-2.49-1.12-2.49-2.49"/><path class="cls-25" d="M426.08,198.73c0-1.37,1.12-2.49,2.49-2.49s2.49,1.12,2.49,2.49-1.12,2.49-2.49,2.49-2.49-1.12-2.49-2.49"/><path class="cls-6" d="M426.08,198.73c0-1.37,1.12-2.49,2.49-2.49s2.49,1.12,2.49,2.49-1.12,2.49-2.49,2.49-2.49-1.12-2.49-2.49"/><path class="cls-25" d="M428.55,207.05c0-1.36,1.12-2.48,2.49-2.48s2.49,1.12,2.49,2.48-1.12,2.49-2.49,2.49-2.49-1.12-2.49-2.49"/><path class="cls-6" d="M428.55,207.05c0-1.36,1.12-2.48,2.49-2.48s2.49,1.12,2.49,2.48-1.12,2.49-2.49,2.49-2.49-1.12-2.49-2.49"/><path class="cls-25" d="M414.54,197.58c0-1.37,1.12-2.49,2.49-2.49s2.49,1.12,2.49,2.49-1.12,2.49-2.49,2.49-2.49-1.12-2.49-2.49"/><path class="cls-6" d="M414.54,197.58c0-1.37,1.12-2.49,2.49-2.49s2.49,1.12,2.49,2.49-1.12,2.49-2.49,2.49-2.49-1.12-2.49-2.49"/><path class="cls-25" d="M420.71,195.28c0-1.36,1.12-2.48,2.49-2.48s2.49,1.12,2.49,2.48-1.12,2.49-2.49,2.49-2.49-1.12-2.49-2.49"/><path class="cls-6" d="M420.71,195.28c0-1.36,1.12-2.48,2.49-2.48s2.49,1.12,2.49,2.48-1.12,2.49-2.49,2.49-2.49-1.12-2.49-2.49"/><path class="cls-25" d="M416.52,216.56c0-1.37,1.12-2.49,2.49-2.49s2.49,1.12,2.49,2.49-1.12,2.49-2.49,2.49-2.49-1.12-2.49-2.49"/><path class="cls-6" d="M416.52,216.56c0-1.37,1.12-2.49,2.49-2.49s2.49,1.12,2.49,2.49-1.12,2.49-2.49,2.49-2.49-1.12-2.49-2.49"/><path class="cls-25" d="M428.1,187.37c0-1.37,1.12-2.49,2.49-2.49s2.49,1.12,2.49,2.49-1.12,2.49-2.49,2.49-2.49-1.12-2.49-2.49"/><path class="cls-6" d="M428.1,187.37c0-1.37,1.12-2.49,2.49-2.49s2.49,1.12,2.49,2.49-1.12,2.49-2.49,2.49-2.49-1.12-2.49-2.49"/><path class="cls-25" d="M446.48,160.63c0-1.37,1.12-2.49,2.49-2.49s2.48,1.12,2.48,2.49-1.12,2.49-2.48,2.49-2.49-1.12-2.49-2.49"/><path class="cls-6" d="M446.48,160.63c0-1.37,1.12-2.49,2.49-2.49s2.48,1.12,2.48,2.49-1.12,2.49-2.48,2.49-2.49-1.12-2.49-2.49"/><path class="cls-25" d="M434.05,188.77c0-1.37,1.12-2.49,2.49-2.49s2.49,1.12,2.49,2.49-1.12,2.49-2.49,2.49-2.49-1.12-2.49-2.49"/><path class="cls-6" d="M434.05,188.77c0-1.37,1.12-2.49,2.49-2.49s2.49,1.12,2.49,2.49-1.12,2.49-2.49,2.49-2.49-1.12-2.49-2.49"/><path class="cls-25" d="M435.39,202.01c0-1.37,1.12-2.49,2.49-2.49s2.48,1.12,2.48,2.49-1.12,2.49-2.48,2.49-2.49-1.12-2.49-2.49"/><path class="cls-6" d="M435.39,202.01c0-1.37,1.12-2.49,2.49-2.49s2.48,1.12,2.48,2.49-1.12,2.49-2.48,2.49-2.49-1.12-2.49-2.49"/><path class="cls-25" d="M439.59,205.57c0-1.37,1.12-2.49,2.49-2.49s2.49,1.12,2.49,2.49-1.12,2.49-2.49,2.49-2.49-1.12-2.49-2.49"/><path class="cls-6" d="M439.59,205.57c0-1.37,1.12-2.49,2.49-2.49s2.49,1.12,2.49,2.49-1.12,2.49-2.49,2.49-2.49-1.12-2.49-2.49"/><path class="cls-25" d="M444.88,167.18c0-1.37,1.12-2.49,2.49-2.49s2.49,1.12,2.49,2.49-1.12,2.49-2.49,2.49-2.49-1.12-2.49-2.49"/><path class="cls-6" d="M444.88,167.18c0-1.37,1.12-2.49,2.49-2.49s2.49,1.12,2.49,2.49-1.12,2.49-2.49,2.49-2.49-1.12-2.49-2.49"/><path class="cls-25" d="M446.58,211.79c0-1.36,1.12-2.48,2.49-2.48s2.49,1.12,2.49,2.48-1.12,2.49-2.49,2.49-2.49-1.12-2.49-2.49"/><path class="cls-6" d="M446.58,211.79c0-1.36,1.12-2.48,2.49-2.48s2.49,1.12,2.49,2.48-1.12,2.49-2.49,2.49-2.49-1.12-2.49-2.49"/><path class="cls-25" d="M433.72,152.98c0-1.36,1.12-2.48,2.49-2.48s2.49,1.12,2.49,2.48-1.12,2.49-2.49,2.49-2.49-1.12-2.49-2.49"/><path class="cls-6" d="M433.72,152.98c0-1.36,1.12-2.48,2.49-2.48s2.49,1.12,2.49,2.48-1.12,2.49-2.49,2.49-2.49-1.12-2.49-2.49"/><path class="cls-25" d="M441.31,193.36c0-1.37,1.12-2.49,2.49-2.49s2.49,1.12,2.49,2.49-1.12,2.49-2.49,2.49-2.49-1.12-2.49-2.49"/><path class="cls-6" d="M441.31,193.36c0-1.37,1.12-2.49,2.49-2.49s2.49,1.12,2.49,2.49-1.12,2.49-2.49,2.49-2.49-1.12-2.49-2.49"/><path class="cls-25" d="M435.22,207.23c0-1.37,1.12-2.49,2.49-2.49s2.49,1.12,2.49,2.49-1.12,2.49-2.49,2.49-2.49-1.12-2.49-2.49"/><path class="cls-6" d="M435.22,207.23c0-1.37,1.12-2.49,2.49-2.49s2.49,1.12,2.49,2.49-1.12,2.49-2.49,2.49-2.49-1.12-2.49-2.49"/><path class="cls-10" d="M439.62,122.93c0-1.36,1.12-2.48,2.49-2.48s2.49,1.12,2.49,2.48-1.12,2.49-2.49,2.49-2.49-1.12-2.49-2.49"/><path class="cls-6" d="M439.62,122.93c0-1.36,1.12-2.48,2.49-2.48s2.49,1.12,2.49,2.48-1.12,2.49-2.49,2.49-2.49-1.12-2.49-2.49"/><path class="cls-25" d="M463.52,207.15c0-1.37,1.12-2.49,2.49-2.49s2.49,1.12,2.49,2.49-1.12,2.49-2.49,2.49-2.49-1.12-2.49-2.49"/><path class="cls-6" d="M463.52,207.15c0-1.37,1.12-2.49,2.49-2.49s2.49,1.12,2.49,2.49-1.12,2.49-2.49,2.49-2.49-1.12-2.49-2.49"/><path class="cls-10" d="M454.57,18.53c0-1.37,1.12-2.49,2.49-2.49s2.49,1.12,2.49,2.49-1.12,2.49-2.49,2.49-2.49-1.12-2.49-2.49"/><path class="cls-6" d="M454.57,18.53c0-1.37,1.12-2.49,2.49-2.49s2.49,1.12,2.49,2.49-1.12,2.49-2.49,2.49-2.49-1.12-2.49-2.49"/><path class="cls-25" d="M460.21,192.89c0-1.36,1.12-2.48,2.49-2.48s2.49,1.12,2.49,2.48-1.12,2.49-2.49,2.49-2.49-1.12-2.49-2.49"/><path class="cls-6" d="M460.21,192.89c0-1.36,1.12-2.48,2.49-2.48s2.49,1.12,2.49,2.48-1.12,2.49-2.49,2.49-2.49-1.12-2.49-2.49"/><path class="cls-25" d="M455.09,125.1c0-1.37,1.12-2.49,2.49-2.49s2.49,1.12,2.49,2.49-1.12,2.49-2.49,2.49-2.49-1.12-2.49-2.49"/><path class="cls-6" d="M455.09,125.1c0-1.37,1.12-2.49,2.49-2.49s2.49,1.12,2.49,2.49-1.12,2.49-2.49,2.49-2.49-1.12-2.49-2.49"/><path class="cls-25" d="M457.86,184.88c0-1.37,1.12-2.49,2.48-2.49s2.49,1.12,2.49,2.49-1.12,2.49-2.49,2.49-2.48-1.12-2.48-2.49"/><path class="cls-6" d="M457.86,184.88c0-1.37,1.12-2.49,2.48-2.49s2.49,1.12,2.49,2.49-1.12,2.49-2.49,2.49-2.48-1.12-2.48-2.49"/><path class="cls-25" d="M458.89,172.8c0-1.37,1.12-2.49,2.49-2.49s2.49,1.12,2.49,2.49-1.12,2.49-2.49,2.49-2.49-1.12-2.49-2.49"/><path class="cls-6" d="M458.89,172.8c0-1.37,1.12-2.49,2.49-2.49s2.49,1.12,2.49,2.49-1.12,2.49-2.49,2.49-2.49-1.12-2.49-2.49"/><path class="cls-25" d="M465.04,60.04c0-1.37,1.12-2.49,2.49-2.49s2.49,1.12,2.49,2.49-1.12,2.48-2.49,2.48-2.49-1.12-2.49-2.48"/><path class="cls-6" d="M465.04,60.04c0-1.37,1.12-2.49,2.49-2.49s2.49,1.12,2.49,2.49-1.12,2.48-2.49,2.48-2.49-1.12-2.49-2.48"/><path class="cls-25" d="M456.1,204.41c0-1.37,1.12-2.49,2.48-2.49s2.49,1.12,2.49,2.49-1.12,2.49-2.49,2.49-2.48-1.12-2.48-2.49"/><path class="cls-6" d="M456.1,204.41c0-1.37,1.12-2.49,2.48-2.49s2.49,1.12,2.49,2.49-1.12,2.49-2.49,2.49-2.48-1.12-2.48-2.49"/><path class="cls-10" d="M458.22,149.4c0-1.37,1.12-2.49,2.49-2.49s2.48,1.12,2.48,2.49-1.12,2.49-2.48,2.49-2.49-1.12-2.49-2.49"/><path class="cls-6" d="M458.22,149.4c0-1.37,1.12-2.49,2.49-2.49s2.48,1.12,2.48,2.49-1.12,2.49-2.48,2.49-2.49-1.12-2.49-2.49"/><path class="cls-10" d="M461.47,159.42c0-1.37,1.12-2.48,2.49-2.48s2.49,1.11,2.49,2.48-1.12,2.49-2.49,2.49-2.49-1.12-2.49-2.49"/><path class="cls-6" d="M461.47,159.42c0-1.37,1.12-2.48,2.49-2.48s2.49,1.11,2.49,2.48-1.12,2.49-2.49,2.49-2.49-1.12-2.49-2.49"/><path class="cls-25" d="M478.07,103.71c0-1.37,1.12-2.49,2.48-2.49s2.49,1.12,2.49,2.49-1.12,2.48-2.49,2.48-2.48-1.12-2.48-2.48"/><path class="cls-6" d="M478.07,103.71c0-1.37,1.12-2.49,2.48-2.49s2.49,1.12,2.49,2.49-1.12,2.48-2.49,2.48-2.48-1.12-2.48-2.48"/><path class="cls-10" d="M473.8,19.58c0-1.37,1.12-2.49,2.49-2.49s2.48,1.12,2.48,2.49-1.12,2.49-2.48,2.49-2.49-1.12-2.49-2.49"/><path class="cls-6" d="M473.8,19.58c0-1.37,1.12-2.49,2.49-2.49s2.48,1.12,2.48,2.49-1.12,2.49-2.48,2.49-2.49-1.12-2.49-2.49"/><path class="cls-10" d="M487.31,22.37c0-1.37,1.12-2.48,2.49-2.48s2.49,1.11,2.49,2.48-1.12,2.49-2.49,2.49-2.49-1.12-2.49-2.49"/><path class="cls-6" d="M487.31,22.37c0-1.37,1.12-2.48,2.49-2.48s2.49,1.11,2.49,2.48-1.12,2.49-2.49,2.49-2.49-1.12-2.49-2.49"/><path class="cls-10" d="M478.95,22.09c0-1.37,1.12-2.49,2.48-2.49s2.49,1.12,2.49,2.49-1.12,2.49-2.49,2.49-2.48-1.12-2.48-2.49"/><path class="cls-6" d="M478.95,22.09c0-1.37,1.12-2.49,2.48-2.49s2.49,1.12,2.49,2.49-1.12,2.49-2.49,2.49-2.48-1.12-2.48-2.49"/><path class="cls-10" d="M482.86,27.16c0-1.37,1.12-2.49,2.49-2.49s2.48,1.12,2.48,2.49-1.12,2.49-2.48,2.49-2.49-1.12-2.49-2.49"/><path class="cls-6" d="M482.86,27.16c0-1.37,1.12-2.49,2.49-2.49s2.48,1.12,2.48,2.49-1.12,2.49-2.48,2.49-2.49-1.12-2.49-2.49"/><path class="cls-10" d="M485.89,26.87c0-1.37,1.12-2.49,2.49-2.49s2.49,1.12,2.49,2.49-1.12,2.49-2.49,2.49-2.49-1.12-2.49-2.49"/><path class="cls-6" d="M485.89,26.87c0-1.37,1.12-2.49,2.49-2.49s2.49,1.12,2.49,2.49-1.12,2.49-2.49,2.49-2.49-1.12-2.49-2.49"/><path class="cls-10" d="M486.46,41.3c0-1.37,1.12-2.49,2.49-2.49s2.49,1.12,2.49,2.49-1.12,2.49-2.49,2.49-2.49-1.12-2.49-2.49"/><path class="cls-6" d="M486.46,41.3c0-1.37,1.12-2.49,2.49-2.49s2.49,1.12,2.49,2.49-1.12,2.49-2.49,2.49-2.49-1.12-2.49-2.49"/><path class="cls-10" d="M475.95,21.62c0-1.37,1.12-2.49,2.49-2.49s2.49,1.12,2.49,2.49-1.12,2.49-2.49,2.49-2.49-1.12-2.49-2.49"/><path class="cls-6" d="M475.95,21.62c0-1.37,1.12-2.49,2.49-2.49s2.49,1.12,2.49,2.49-1.12,2.49-2.49,2.49-2.49-1.12-2.49-2.49"/><path class="cls-25" d="M473.06,109.88c0-1.37,1.12-2.49,2.49-2.49s2.49,1.12,2.49,2.49-1.12,2.49-2.49,2.49-2.49-1.12-2.49-2.49"/><path class="cls-6" d="M473.06,109.88c0-1.37,1.12-2.49,2.49-2.49s2.49,1.12,2.49,2.49-1.12,2.49-2.49,2.49-2.49-1.12-2.49-2.49"/><path class="cls-25" d="M478.39,102.56c0-1.37,1.12-2.49,2.49-2.49s2.49,1.12,2.49,2.49-1.12,2.49-2.49,2.49-2.49-1.12-2.49-2.49"/><path class="cls-6" d="M478.39,102.56c0-1.37,1.12-2.49,2.49-2.49s2.49,1.12,2.49,2.49-1.12,2.49-2.49,2.49-2.49-1.12-2.49-2.49"/><path class="cls-10" d="M503.32,27.05c0-1.37,1.12-2.49,2.49-2.49s2.49,1.12,2.49,2.49-1.12,2.49-2.49,2.49-2.49-1.12-2.49-2.49"/><path class="cls-6" d="M503.32,27.05c0-1.37,1.12-2.49,2.49-2.49s2.49,1.12,2.49,2.49-1.12,2.49-2.49,2.49-2.49-1.12-2.49-2.49"/><path class="cls-10" d="M502.17,21.24c0-1.37,1.12-2.49,2.49-2.49s2.49,1.12,2.49,2.49-1.12,2.49-2.49,2.49-2.49-1.12-2.49-2.49"/><path class="cls-6" d="M502.17,21.24c0-1.37,1.12-2.49,2.49-2.49s2.49,1.12,2.49,2.49-1.12,2.49-2.49,2.49-2.49-1.12-2.49-2.49"/><path class="cls-10" d="M498.29,19.29c0-1.37,1.12-2.49,2.49-2.49s2.49,1.12,2.49,2.49-1.12,2.49-2.49,2.49-2.49-1.12-2.49-2.49"/><path class="cls-6" d="M498.29,19.29c0-1.37,1.12-2.49,2.49-2.49s2.49,1.12,2.49,2.49-1.12,2.49-2.49,2.49-2.49-1.12-2.49-2.49"/><path class="cls-10" d="M502.03,27.54c0-1.37,1.12-2.49,2.49-2.49s2.49,1.12,2.49,2.49-1.12,2.49-2.49,2.49-2.49-1.12-2.49-2.49"/><path class="cls-6" d="M502.03,27.54c0-1.37,1.12-2.49,2.49-2.49s2.49,1.12,2.49,2.49-1.12,2.49-2.49,2.49-2.49-1.12-2.49-2.49"/><path class="cls-10" d="M501.46,41.84c0-1.37,1.12-2.49,2.49-2.49s2.48,1.12,2.48,2.49-1.12,2.48-2.48,2.48-2.49-1.12-2.49-2.48"/><path class="cls-6" d="M501.46,41.84c0-1.37,1.12-2.49,2.49-2.49s2.48,1.12,2.48,2.49-1.12,2.48-2.48,2.48-2.49-1.12-2.49-2.48"/><path class="cls-10" d="M501.49,48.81c0-1.37,1.12-2.49,2.49-2.49s2.49,1.12,2.49,2.49-1.12,2.49-2.49,2.49-2.49-1.12-2.49-2.49"/><path class="cls-6" d="M501.49,48.81c0-1.37,1.12-2.49,2.49-2.49s2.49,1.12,2.49,2.49-1.12,2.49-2.49,2.49-2.49-1.12-2.49-2.49"/><path class="cls-10" d="M495.5,15.57c0-1.37,1.12-2.49,2.48-2.49s2.49,1.12,2.49,2.49-1.12,2.48-2.49,2.48-2.48-1.12-2.48-2.48"/><path class="cls-6" d="M495.5,15.57c0-1.37,1.12-2.49,2.48-2.49s2.49,1.12,2.49,2.49-1.12,2.48-2.49,2.48-2.48-1.12-2.48-2.48"/><path class="cls-10" d="M513.56,26.64c0-1.36,1.12-2.48,2.49-2.48s2.49,1.12,2.49,2.48-1.12,2.49-2.49,2.49-2.49-1.12-2.49-2.49"/><path class="cls-6" d="M513.56,26.64c0-1.36,1.12-2.48,2.49-2.48s2.49,1.12,2.49,2.48-1.12,2.49-2.49,2.49-2.49-1.12-2.49-2.49"/><path class="cls-10" d="M519.5,122.04c0-1.37,1.12-2.49,2.48-2.49s2.49,1.12,2.49,2.49-1.12,2.48-2.49,2.48-2.48-1.12-2.48-2.48"/><path class="cls-6" d="M519.5,122.04c0-1.37,1.12-2.49,2.48-2.49s2.49,1.12,2.49,2.49-1.12,2.48-2.49,2.48-2.48-1.12-2.48-2.48"/><path class="cls-10" d="M520.28,43.83c0-1.37,1.12-2.49,2.49-2.49s2.49,1.12,2.49,2.49-1.12,2.49-2.49,2.49-2.49-1.12-2.49-2.49"/><path class="cls-6" d="M520.28,43.83c0-1.37,1.12-2.49,2.49-2.49s2.49,1.12,2.49,2.49-1.12,2.49-2.49,2.49-2.49-1.12-2.49-2.49"/><path class="cls-10" d="M523.42,45.88c0-1.37,1.12-2.49,2.49-2.49s2.49,1.12,2.49,2.49-1.12,2.48-2.49,2.48-2.49-1.12-2.49-2.48"/><path class="cls-6" d="M523.42,45.88c0-1.37,1.12-2.49,2.49-2.49s2.49,1.12,2.49,2.49-1.12,2.48-2.49,2.48-2.49-1.12-2.49-2.48"/><path class="cls-10" d="M524.81,43.82c0-1.37,1.12-2.49,2.49-2.49s2.49,1.12,2.49,2.49-1.12,2.49-2.49,2.49-2.49-1.12-2.49-2.49"/><path class="cls-6" d="M524.81,43.82c0-1.37,1.12-2.49,2.49-2.49s2.49,1.12,2.49,2.49-1.12,2.49-2.49,2.49-2.49-1.12-2.49-2.49"/><path class="cls-10" d="M525.98,42.67c0-1.37,1.11-2.49,2.48-2.49s2.49,1.12,2.49,2.49-1.12,2.49-2.49,2.49-2.48-1.12-2.48-2.49"/><path class="cls-6" d="M525.98,42.67c0-1.37,1.11-2.49,2.48-2.49s2.49,1.12,2.49,2.49-1.12,2.49-2.49,2.49-2.48-1.12-2.48-2.49"/><path class="cls-10" d="M512.64,21.83c0-1.37,1.12-2.49,2.48-2.49s2.49,1.12,2.49,2.49-1.12,2.49-2.49,2.49-2.48-1.12-2.48-2.49"/><path class="cls-6" d="M512.64,21.83c0-1.37,1.12-2.49,2.48-2.49s2.49,1.12,2.49,2.49-1.12,2.49-2.49,2.49-2.48-1.12-2.48-2.49"/><path class="cls-10" d="M512.45,40.25c0-1.37,1.12-2.49,2.49-2.49s2.49,1.12,2.49,2.49-1.12,2.48-2.49,2.48-2.49-1.12-2.49-2.48"/><path class="cls-6" d="M512.45,40.25c0-1.37,1.12-2.49,2.49-2.49s2.49,1.12,2.49,2.49-1.12,2.48-2.49,2.48-2.49-1.12-2.49-2.48"/><path class="cls-25" d="M515.48,152.66c0-1.37,1.12-2.49,2.49-2.49s2.49,1.12,2.49,2.49-1.12,2.49-2.49,2.49-2.49-1.12-2.49-2.49"/><path class="cls-6" d="M515.48,152.66c0-1.37,1.12-2.49,2.49-2.49s2.49,1.12,2.49,2.49-1.12,2.49-2.49,2.49-2.49-1.12-2.49-2.49"/><path class="cls-10" d="M524.39,22.49c0-1.37,1.12-2.49,2.49-2.49s2.49,1.12,2.49,2.49-1.12,2.48-2.49,2.48-2.49-1.12-2.49-2.48"/><path class="cls-6" d="M524.39,22.49c0-1.37,1.12-2.49,2.49-2.49s2.49,1.12,2.49,2.49-1.12,2.48-2.49,2.48-2.49-1.12-2.49-2.48"/><path class="cls-10" d="M534.53,38.12c0-1.37,1.12-2.49,2.49-2.49s2.49,1.12,2.49,2.49-1.12,2.49-2.49,2.49-2.49-1.12-2.49-2.49"/><path class="cls-6" d="M534.53,38.12c0-1.37,1.12-2.49,2.49-2.49s2.49,1.12,2.49,2.49-1.12,2.49-2.49,2.49-2.49-1.12-2.49-2.49"/><path class="cls-10" d="M544.76,28.26c0-1.37,1.12-2.49,2.49-2.49s2.49,1.12,2.49,2.49-1.12,2.49-2.49,2.49-2.49-1.12-2.49-2.49"/><path class="cls-6" d="M544.76,28.26c0-1.37,1.12-2.49,2.49-2.49s2.49,1.12,2.49,2.49-1.12,2.49-2.49,2.49-2.49-1.12-2.49-2.49"/><path class="cls-10" d="M532.04,41.71c0-1.37,1.11-2.49,2.48-2.49s2.49,1.12,2.49,2.49-1.12,2.49-2.49,2.49-2.48-1.12-2.48-2.49"/><path class="cls-6" d="M532.04,41.71c0-1.37,1.11-2.49,2.48-2.49s2.49,1.12,2.49,2.49-1.12,2.49-2.49,2.49-2.48-1.12-2.48-2.49"/><path class="cls-10" d="M542.62,41.07c0-1.37,1.12-2.49,2.49-2.49s2.49,1.12,2.49,2.49-1.12,2.49-2.49,2.49-2.49-1.12-2.49-2.49"/><path class="cls-6" d="M542.62,41.07c0-1.37,1.12-2.49,2.49-2.49s2.49,1.12,2.49,2.49-1.12,2.49-2.49,2.49-2.49-1.12-2.49-2.49"/><path class="cls-10" d="M530.91,59.45c0-1.37,1.12-2.49,2.49-2.49s2.49,1.12,2.49,2.49-1.12,2.49-2.49,2.49-2.49-1.12-2.49-2.49"/><path class="cls-6" d="M530.91,59.45c0-1.37,1.12-2.49,2.49-2.49s2.49,1.12,2.49,2.49-1.12,2.49-2.49,2.49-2.49-1.12-2.49-2.49"/><path class="cls-10" d="M539.53,41.76c0-1.37,1.12-2.49,2.49-2.49s2.48,1.12,2.48,2.49-1.11,2.49-2.48,2.49-2.49-1.12-2.49-2.49"/><path class="cls-6" d="M539.53,41.76c0-1.37,1.12-2.49,2.49-2.49s2.48,1.12,2.48,2.49-1.11,2.49-2.48,2.49-2.49-1.12-2.49-2.49"/><path class="cls-10" d="M535.68,26.14c0-1.37,1.12-2.49,2.49-2.49s2.49,1.12,2.49,2.49-1.12,2.49-2.49,2.49-2.49-1.12-2.49-2.49"/><path class="cls-6" d="M535.68,26.14c0-1.37,1.12-2.49,2.49-2.49s2.49,1.12,2.49,2.49-1.12,2.49-2.49,2.49-2.49-1.12-2.49-2.49"/><path class="cls-10" d="M535.84,18.38c0-1.36,1.12-2.48,2.48-2.48s2.49,1.12,2.49,2.48-1.12,2.49-2.49,2.49-2.48-1.12-2.48-2.49"/><path class="cls-6" d="M535.84,18.38c0-1.36,1.12-2.48,2.48-2.48s2.49,1.12,2.49,2.48-1.12,2.49-2.49,2.49-2.48-1.12-2.48-2.49"/><path class="cls-10" d="M544.8,42.94c0-1.37,1.12-2.49,2.49-2.49s2.49,1.12,2.49,2.49-1.12,2.49-2.49,2.49-2.49-1.12-2.49-2.49"/><path class="cls-6" d="M544.8,42.94c0-1.37,1.12-2.49,2.49-2.49s2.49,1.12,2.49,2.49-1.12,2.49-2.49,2.49-2.49-1.12-2.49-2.49"/><path class="cls-10" d="M535.07,35.57c0-1.37,1.12-2.49,2.48-2.49s2.49,1.12,2.49,2.49-1.12,2.49-2.49,2.49-2.48-1.12-2.48-2.49"/><path class="cls-6" d="M535.07,35.57c0-1.37,1.12-2.49,2.48-2.49s2.49,1.12,2.49,2.49-1.12,2.49-2.49,2.49-2.48-1.12-2.48-2.49"/><polyline class="cls-2" points="384.43 197.52 386.61 197.31 388.78 197.09 390.95 196.84 393.13 196.56 395.3 196.22 397.48 195.83 399.65 195.35 401.82 194.79 404 194.13 406.17 193.36 408.35 192.47 410.52 191.45 412.69 190.3 414.87 189.01 417.04 187.57 419.22 185.97 421.39 184.22 423.56 182.29 425.74 180.19 427.91 177.93 430.09 175.49 432.26 172.9 434.43 170.15 436.61 167.25 438.78 164.21 440.96 161.02 443.13 157.7 445.3 154.25 447.48 150.69 449.65 147.02 451.83 143.26 454 139.43 456.17 135.53 458.35 131.58 460.52 127.59 462.7 123.58 464.87 119.55 467.04 115.53 469.22 111.53 471.39 107.55 473.57 103.6 475.74 99.72 477.91 95.89 480.09 92.14 482.26 88.48 484.44 84.92 486.61 81.47 488.78 78.13 490.96 74.9 493.13 71.8 495.31 68.82 497.48 65.97 499.65 63.26 501.83 60.68 504 58.25 506.18 55.96 508.35 53.81 510.52 51.79 512.7 49.9 514.87 48.14 517.05 46.5 519.22 44.98 521.39 43.58 523.57 42.29 525.74 41.1 527.92 40.01 530.09 39.02 532.26 38.11 534.44 37.29 536.61 36.53 538.79 35.85 540.96 35.22 543.13 34.65 545.31 34.13 547.48 33.67 549.66 33.25 551.83 32.87 554 32.55 556.18 32.26 558.35 32.02 560.53 31.81 562.7 31.64 564.87 31.5 567.05 31.4 569.22 31.32 571.4 31.28 573.57 31.26 575.74 31.26 577.92 31.29 580.09 31.34 582.27 31.4 584.44 31.48 586.61 31.58 588.79 31.69 590.96 31.8 593.14 31.93 595.31 32.06 597.48 32.2 599.66 32.33"/><rect class="cls-3" x="367.28" y="5.48" width="251.24" height="221.89"/></g><text class="cls-12" transform="translate(342.45 206.39)"><tspan x="0" y="0">0</tspan></text><text class="cls-12" transform="translate(342.45 164.04)"><tspan x="0" y="0">1</tspan></text><text class="cls-12" transform="translate(342.45 121.69)"><tspan x="0" y="0">2</tspan></text><text class="cls-12" transform="translate(342.45 79.34)"><tspan x="0" y="0">3</tspan></text><text class="cls-12" transform="translate(342.45 37)"><tspan x="0" y="0">4</tspan></text><line class="cls-4" x1="360.2" y1="201.36" x2="367.28" y2="201.36"/><line class="cls-4" x1="360.2" y1="159.01" x2="367.28" y2="159.01"/><line class="cls-4" x1="360.2" y1="116.67" x2="367.28" y2="116.67"/><line class="cls-4" x1="360.2" y1="74.32" x2="367.28" y2="74.32"/><line class="cls-4" x1="360.2" y1="31.97" x2="367.28" y2="31.97"/><line class="cls-4" x1="413.78" y1="234.46" x2="413.78" y2="227.37"/><line class="cls-4" x1="462.7" y1="234.46" x2="462.7" y2="227.37"/><line class="cls-4" x1="511.61" y1="234.46" x2="511.61" y2="227.37"/><line class="cls-4" x1="560.53" y1="234.46" x2="560.53" y2="227.37"/><line class="cls-4" x1="609.44" y1="234.46" x2="609.44" y2="227.37"/><text class="cls-12" transform="translate(406 254.47)"><tspan x="0" y="0">10</tspan></text><text class="cls-12" transform="translate(454.91 254.47)"><tspan x="0" y="0">20</tspan></text><text class="cls-12" transform="translate(503.83 254.47)"><tspan x="0" y="0">30</tspan></text><text class="cls-12" transform="translate(552.74 254.47)"><tspan x="0" y="0">40</tspan></text><text class="cls-12" transform="translate(601.66 254.47)"><tspan x="0" y="0">50</tspan></text><text class="cls-11" transform="translate(463.13 279)"><tspan x="0" y="0">Time (h)</tspan></text><text class="cls-11" transform="translate(328.97 161.33) rotate(-90)"><tspan x="0" y="0">Melanization</tspan></text><rect class="cls-19" x="528.08" y="140.63" width="67.18" height="45.52"/><rect class="cls-19" x="533.56" y="146.11" width="17.28" height="17.28"/><path class="cls-25" d="M539.71,154.75c0-1.37,1.12-2.49,2.49-2.49s2.48,1.12,2.48,2.49-1.12,2.49-2.48,2.49-2.49-1.12-2.49-2.49"/><path class="cls-6" d="M539.71,154.75c0-1.37,1.12-2.49,2.49-2.49s2.48,1.12,2.48,2.49-1.12,2.49-2.48,2.49-2.49-1.12-2.49-2.49"/><rect class="cls-19" x="533.56" y="163.39" width="17.28" height="17.28"/><path class="cls-10" d="M539.71,172.03c0-1.37,1.12-2.49,2.49-2.49s2.48,1.12,2.48,2.49-1.12,2.49-2.48,2.49-2.49-1.12-2.49-2.49"/><path class="cls-6" d="M539.71,172.03c0-1.37,1.12-2.49,2.49-2.49s2.48,1.12,2.48,2.49-1.12,2.49-2.48,2.49-2.49-1.12-2.49-2.49"/><text class="cls-12" transform="translate(556.31 159.78)"><tspan x="0" y="0">Ali</tspan><tspan class="cls-22" x="15.56" y="0">v</tspan><tspan x="22.22" y="0">e</tspan></text><text class="cls-12" transform="translate(556.31 177.06)"><tspan x="0" y="0">Dead</tspan></text><rect class="cls-19" x="528.08" y="197.11" width="80.39" height="28.24"/><rect class="cls-19" x="533.56" y="202.59" width="17.28" height="17.28"/><line class="cls-2" x1="535.28" y1="211.23" x2="549.11" y2="211.23"/><text class="cls-12" transform="translate(556.31 216.26)"><tspan x="0" y="0">GAM fit</tspan></text><text class="cls-13" transform="translate(317.05 15.08)"><tspan x="0" y="0">B</tspan></text><g class="cls-16"><rect class="cls-19" x="624" width="312" height="288"/><rect class="cls-5" x="624" width="312" height="288"/></g><g class="cls-18"><rect class="cls-19" x="698.74" y="5.48" width="231.78" height="221.89"/><line class="cls-9" x1="698.74" y1="192.07" x2="930.52" y2="192.07"/><line class="cls-9" x1="698.74" y1="141.64" x2="930.52" y2="141.64"/><line class="cls-9" x1="698.74" y1="91.21" x2="930.52" y2="91.21"/><line class="cls-9" x1="698.74" y1="40.78" x2="930.52" y2="40.78"/><line class="cls-9" x1="727.21" y1="227.37" x2="727.21" y2="5.48"/><line class="cls-9" x1="772.04" y1="227.37" x2="772.04" y2="5.48"/><line class="cls-9" x1="816.87" y1="227.37" x2="816.87" y2="5.48"/><line class="cls-9" x1="861.7" y1="227.37" x2="861.7" y2="5.48"/><line class="cls-9" x1="906.54" y1="227.37" x2="906.54" y2="5.48"/><line class="cls-8" x1="698.74" y1="217.28" x2="930.52" y2="217.28"/><line class="cls-8" x1="698.74" y1="166.85" x2="930.52" y2="166.85"/><line class="cls-8" x1="698.74" y1="116.42" x2="930.52" y2="116.42"/><line class="cls-8" x1="698.74" y1="65.99" x2="930.52" y2="65.99"/><line class="cls-8" x1="698.74" y1="15.57" x2="930.52" y2="15.57"/><line class="cls-8" x1="704.8" y1="227.37" x2="704.8" y2="5.48"/><line class="cls-8" x1="749.63" y1="227.37" x2="749.63" y2="5.48"/><line class="cls-8" x1="794.46" y1="227.37" x2="794.46" y2="5.48"/><line class="cls-8" x1="839.29" y1="227.37" x2="839.29" y2="5.48"/><line class="cls-8" x1="884.12" y1="227.37" x2="884.12" y2="5.48"/><line class="cls-8" x1="928.95" y1="227.37" x2="928.95" y2="5.48"/><path class="cls-23" d="M706.79,15.57c0-1.37,1.12-2.49,2.49-2.49s2.49,1.12,2.49,2.49-1.12,2.48-2.49,2.48-2.49-1.12-2.49-2.48"/><path class="cls-6" d="M706.79,15.57c0-1.37,1.12-2.49,2.49-2.49s2.49,1.12,2.49,2.49-1.12,2.48-2.49,2.48-2.49-1.12-2.49-2.48"/><path class="cls-23" d="M711.27,15.57c0-1.37,1.12-2.49,2.49-2.49s2.49,1.12,2.49,2.49-1.12,2.48-2.49,2.48-2.49-1.12-2.49-2.48"/><path class="cls-6" d="M711.27,15.57c0-1.37,1.12-2.49,2.49-2.49s2.49,1.12,2.49,2.49-1.12,2.48-2.49,2.48-2.49-1.12-2.49-2.48"/><path class="cls-23" d="M715.76,15.57c0-1.37,1.12-2.49,2.48-2.49s2.49,1.12,2.49,2.49-1.12,2.48-2.49,2.48-2.48-1.12-2.48-2.48"/><path class="cls-6" d="M715.76,15.57c0-1.37,1.12-2.49,2.48-2.49s2.49,1.12,2.49,2.49-1.12,2.48-2.49,2.48-2.48-1.12-2.48-2.48"/><path class="cls-23" d="M720.24,15.57c0-1.37,1.12-2.49,2.49-2.49s2.49,1.12,2.49,2.49-1.12,2.48-2.49,2.48-2.49-1.12-2.49-2.48"/><path class="cls-6" d="M720.24,15.57c0-1.37,1.12-2.49,2.49-2.49s2.49,1.12,2.49,2.49-1.12,2.48-2.49,2.48-2.49-1.12-2.49-2.48"/><path class="cls-23" d="M724.72,15.57c0-1.37,1.12-2.49,2.49-2.49s2.49,1.12,2.49,2.49-1.12,2.48-2.49,2.48-2.49-1.12-2.49-2.48"/><path class="cls-6" d="M724.72,15.57c0-1.37,1.12-2.49,2.49-2.49s2.49,1.12,2.49,2.49-1.12,2.48-2.49,2.48-2.49-1.12-2.49-2.48"/><path class="cls-23" d="M729.21,15.57c0-1.37,1.12-2.49,2.48-2.49s2.49,1.12,2.49,2.49-1.12,2.48-2.49,2.48-2.48-1.12-2.48-2.48"/><path class="cls-6" d="M729.21,15.57c0-1.37,1.12-2.49,2.48-2.49s2.49,1.12,2.49,2.49-1.12,2.48-2.49,2.48-2.48-1.12-2.48-2.48"/><path class="cls-23" d="M733.69,15.57c0-1.37,1.12-2.49,2.49-2.49s2.49,1.12,2.49,2.49-1.12,2.48-2.49,2.48-2.49-1.12-2.49-2.48"/><path class="cls-6" d="M733.69,15.57c0-1.37,1.12-2.49,2.49-2.49s2.49,1.12,2.49,2.49-1.12,2.48-2.49,2.48-2.49-1.12-2.49-2.48"/><path class="cls-23" d="M738.17,15.57c0-1.37,1.12-2.49,2.49-2.49s2.49,1.12,2.49,2.49-1.12,2.48-2.49,2.48-2.49-1.12-2.49-2.48"/><path class="cls-6" d="M738.17,15.57c0-1.37,1.12-2.49,2.49-2.49s2.49,1.12,2.49,2.49-1.12,2.48-2.49,2.48-2.49-1.12-2.49-2.48"/><path class="cls-23" d="M742.66,15.57c0-1.37,1.12-2.49,2.48-2.49s2.49,1.12,2.49,2.49-1.12,2.48-2.49,2.48-2.48-1.12-2.48-2.48"/><path class="cls-6" d="M742.66,15.57c0-1.37,1.12-2.49,2.48-2.49s2.49,1.12,2.49,2.49-1.12,2.48-2.49,2.48-2.48-1.12-2.48-2.48"/><path class="cls-23" d="M747.14,15.57c0-1.37,1.12-2.49,2.49-2.49s2.49,1.12,2.49,2.49-1.12,2.48-2.49,2.48-2.49-1.12-2.49-2.48"/><path class="cls-6" d="M747.14,15.57c0-1.37,1.12-2.49,2.49-2.49s2.49,1.12,2.49,2.49-1.12,2.48-2.49,2.48-2.49-1.12-2.49-2.48"/><path class="cls-23" d="M751.62,15.57c0-1.37,1.12-2.49,2.49-2.49s2.49,1.12,2.49,2.49-1.12,2.48-2.49,2.48-2.49-1.12-2.49-2.48"/><path class="cls-6" d="M751.62,15.57c0-1.37,1.12-2.49,2.49-2.49s2.49,1.12,2.49,2.49-1.12,2.48-2.49,2.48-2.49-1.12-2.49-2.48"/><path class="cls-23" d="M756.1,15.57c0-1.37,1.12-2.49,2.49-2.49s2.49,1.12,2.49,2.49-1.12,2.48-2.49,2.48-2.49-1.12-2.49-2.48"/><path class="cls-6" d="M756.1,15.57c0-1.37,1.12-2.49,2.49-2.49s2.49,1.12,2.49,2.49-1.12,2.48-2.49,2.48-2.49-1.12-2.49-2.48"/><path class="cls-23" d="M760.59,15.57c0-1.37,1.12-2.49,2.49-2.49s2.48,1.12,2.48,2.49-1.12,2.48-2.48,2.48-2.49-1.12-2.49-2.48"/><path class="cls-6" d="M760.59,15.57c0-1.37,1.12-2.49,2.49-2.49s2.48,1.12,2.48,2.49-1.12,2.48-2.48,2.48-2.49-1.12-2.49-2.48"/><path class="cls-23" d="M765.07,15.57c0-1.37,1.12-2.49,2.49-2.49s2.49,1.12,2.49,2.49-1.12,2.48-2.49,2.48-2.49-1.12-2.49-2.48"/><path class="cls-6" d="M765.07,15.57c0-1.37,1.12-2.49,2.49-2.49s2.49,1.12,2.49,2.49-1.12,2.48-2.49,2.48-2.49-1.12-2.49-2.48"/><path class="cls-23" d="M769.55,15.57c0-1.37,1.12-2.49,2.49-2.49s2.49,1.12,2.49,2.49-1.12,2.48-2.49,2.48-2.49-1.12-2.49-2.48"/><path class="cls-6" d="M769.55,15.57c0-1.37,1.12-2.49,2.49-2.49s2.49,1.12,2.49,2.49-1.12,2.48-2.49,2.48-2.49-1.12-2.49-2.48"/><path class="cls-23" d="M774.04,15.57c0-1.37,1.12-2.49,2.49-2.49s2.48,1.12,2.48,2.49-1.12,2.48-2.48,2.48-2.49-1.12-2.49-2.48"/><path class="cls-6" d="M774.04,15.57c0-1.37,1.12-2.49,2.49-2.49s2.48,1.12,2.48,2.49-1.12,2.48-2.48,2.48-2.49-1.12-2.49-2.48"/><path class="cls-23" d="M778.52,15.57c0-1.37,1.12-2.49,2.49-2.49s2.49,1.12,2.49,2.49-1.12,2.48-2.49,2.48-2.49-1.12-2.49-2.48"/><path class="cls-6" d="M778.52,15.57c0-1.37,1.12-2.49,2.49-2.49s2.49,1.12,2.49,2.49-1.12,2.48-2.49,2.48-2.49-1.12-2.49-2.48"/><path class="cls-23" d="M783,15.57c0-1.37,1.12-2.49,2.49-2.49s2.49,1.12,2.49,2.49-1.12,2.48-2.49,2.48-2.49-1.12-2.49-2.48"/><path class="cls-6" d="M783,15.57c0-1.37,1.12-2.49,2.49-2.49s2.49,1.12,2.49,2.49-1.12,2.48-2.49,2.48-2.49-1.12-2.49-2.48"/><path class="cls-23" d="M787.49,15.57c0-1.37,1.12-2.49,2.48-2.49s2.49,1.12,2.49,2.49-1.12,2.48-2.49,2.48-2.48-1.12-2.48-2.48"/><path class="cls-6" d="M787.49,15.57c0-1.37,1.12-2.49,2.48-2.49s2.49,1.12,2.49,2.49-1.12,2.48-2.49,2.48-2.48-1.12-2.48-2.48"/><path class="cls-23" d="M791.97,15.57c0-1.37,1.12-2.49,2.49-2.49s2.49,1.12,2.49,2.49-1.12,2.48-2.49,2.48-2.49-1.12-2.49-2.48"/><path class="cls-6" d="M791.97,15.57c0-1.37,1.12-2.49,2.49-2.49s2.49,1.12,2.49,2.49-1.12,2.48-2.49,2.48-2.49-1.12-2.49-2.48"/><path class="cls-23" d="M796.45,15.57c0-1.37,1.12-2.49,2.49-2.49s2.49,1.12,2.49,2.49-1.12,2.48-2.49,2.48-2.49-1.12-2.49-2.48"/><path class="cls-6" d="M796.45,15.57c0-1.37,1.12-2.49,2.49-2.49s2.49,1.12,2.49,2.49-1.12,2.48-2.49,2.48-2.49-1.12-2.49-2.48"/><path class="cls-23" d="M800.94,15.57c0-1.37,1.12-2.49,2.48-2.49s2.49,1.12,2.49,2.49-1.12,2.48-2.49,2.48-2.48-1.12-2.48-2.48"/><path class="cls-6" d="M800.94,15.57c0-1.37,1.12-2.49,2.48-2.49s2.49,1.12,2.49,2.49-1.12,2.48-2.49,2.48-2.48-1.12-2.48-2.48"/><path class="cls-23" d="M805.42,15.57c0-1.37,1.12-2.49,2.49-2.49s2.49,1.12,2.49,2.49-1.12,2.48-2.49,2.48-2.49-1.12-2.49-2.48"/><path class="cls-6" d="M805.42,15.57c0-1.37,1.12-2.49,2.49-2.49s2.49,1.12,2.49,2.49-1.12,2.48-2.49,2.48-2.49-1.12-2.49-2.48"/><path class="cls-23" d="M809.9,15.57c0-1.37,1.12-2.49,2.49-2.49s2.49,1.12,2.49,2.49-1.12,2.48-2.49,2.48-2.49-1.12-2.49-2.48"/><path class="cls-6" d="M809.9,15.57c0-1.37,1.12-2.49,2.49-2.49s2.49,1.12,2.49,2.49-1.12,2.48-2.49,2.48-2.49-1.12-2.49-2.48"/><path class="cls-23" d="M814.39,15.57c0-1.37,1.11-2.49,2.48-2.49s2.49,1.12,2.49,2.49-1.12,2.48-2.49,2.48-2.48-1.12-2.48-2.48"/><path class="cls-6" d="M814.39,15.57c0-1.37,1.11-2.49,2.48-2.49s2.49,1.12,2.49,2.49-1.12,2.48-2.49,2.48-2.48-1.12-2.48-2.48"/><path class="cls-23" d="M818.87,15.57c0-1.37,1.12-2.49,2.49-2.49s2.48,1.12,2.48,2.49-1.11,2.48-2.48,2.48-2.49-1.12-2.49-2.48"/><path class="cls-6" d="M818.87,15.57c0-1.37,1.12-2.49,2.49-2.49s2.48,1.12,2.48,2.49-1.11,2.48-2.48,2.48-2.49-1.12-2.49-2.48"/><path class="cls-23" d="M823.35,15.57c0-1.37,1.12-2.49,2.49-2.49s2.49,1.12,2.49,2.49-1.12,2.48-2.49,2.48-2.49-1.12-2.49-2.48"/><path class="cls-6" d="M823.35,15.57c0-1.37,1.12-2.49,2.49-2.49s2.49,1.12,2.49,2.49-1.12,2.48-2.49,2.48-2.49-1.12-2.49-2.48"/><path class="cls-23" d="M827.83,15.57c0-1.37,1.12-2.49,2.49-2.49s2.49,1.12,2.49,2.49-1.12,2.48-2.49,2.48-2.49-1.12-2.49-2.48"/><path class="cls-6" d="M827.83,15.57c0-1.37,1.12-2.49,2.49-2.49s2.49,1.12,2.49,2.49-1.12,2.48-2.49,2.48-2.49-1.12-2.49-2.48"/><path class="cls-23" d="M832.32,15.57c0-1.37,1.12-2.49,2.49-2.49s2.48,1.12,2.48,2.49-1.12,2.48-2.48,2.48-2.49-1.12-2.49-2.48"/><path class="cls-6" d="M832.32,15.57c0-1.37,1.12-2.49,2.49-2.49s2.48,1.12,2.48,2.49-1.12,2.48-2.48,2.48-2.49-1.12-2.49-2.48"/><path class="cls-23" d="M836.8,15.57c0-1.37,1.12-2.49,2.49-2.49s2.49,1.12,2.49,2.49-1.12,2.48-2.49,2.48-2.49-1.12-2.49-2.48"/><path class="cls-6" d="M836.8,15.57c0-1.37,1.12-2.49,2.49-2.49s2.49,1.12,2.49,2.49-1.12,2.48-2.49,2.48-2.49-1.12-2.49-2.48"/><path class="cls-23" d="M841.28,15.57c0-1.37,1.12-2.49,2.49-2.49s2.49,1.12,2.49,2.49-1.12,2.48-2.49,2.48-2.49-1.12-2.49-2.48"/><path class="cls-6" d="M841.28,15.57c0-1.37,1.12-2.49,2.49-2.49s2.49,1.12,2.49,2.49-1.12,2.48-2.49,2.48-2.49-1.12-2.49-2.48"/><path class="cls-23" d="M845.77,15.57c0-1.37,1.12-2.49,2.49-2.49s2.48,1.12,2.48,2.49-1.12,2.48-2.48,2.48-2.49-1.12-2.49-2.48"/><path class="cls-6" d="M845.77,15.57c0-1.37,1.12-2.49,2.49-2.49s2.48,1.12,2.48,2.49-1.12,2.48-2.48,2.48-2.49-1.12-2.49-2.48"/><path class="cls-23" d="M850.25,15.57c0-1.37,1.12-2.49,2.49-2.49s2.49,1.12,2.49,2.49-1.12,2.48-2.49,2.48-2.49-1.12-2.49-2.48"/><path class="cls-6" d="M850.25,15.57c0-1.37,1.12-2.49,2.49-2.49s2.49,1.12,2.49,2.49-1.12,2.48-2.49,2.48-2.49-1.12-2.49-2.48"/><path class="cls-23" d="M854.73,15.57c0-1.37,1.12-2.49,2.49-2.49s2.49,1.12,2.49,2.49-1.12,2.48-2.49,2.48-2.49-1.12-2.49-2.48"/><path class="cls-6" d="M854.73,15.57c0-1.37,1.12-2.49,2.49-2.49s2.49,1.12,2.49,2.49-1.12,2.48-2.49,2.48-2.49-1.12-2.49-2.48"/><path class="cls-23" d="M859.22,15.57c0-1.37,1.12-2.49,2.48-2.49s2.49,1.12,2.49,2.49-1.12,2.48-2.49,2.48-2.48-1.12-2.48-2.48"/><path class="cls-6" d="M859.22,15.57c0-1.37,1.12-2.49,2.48-2.49s2.49,1.12,2.49,2.49-1.12,2.48-2.49,2.48-2.48-1.12-2.48-2.48"/><path class="cls-23" d="M863.7,15.57c0-1.37,1.12-2.49,2.49-2.49s2.49,1.12,2.49,2.49-1.12,2.48-2.49,2.48-2.49-1.12-2.49-2.48"/><path class="cls-6" d="M863.7,15.57c0-1.37,1.12-2.49,2.49-2.49s2.49,1.12,2.49,2.49-1.12,2.48-2.49,2.48-2.49-1.12-2.49-2.48"/><path class="cls-23" d="M917.5,15.57c0-1.37,1.12-2.49,2.49-2.49s2.48,1.12,2.48,2.49-1.12,2.48-2.48,2.48-2.49-1.12-2.49-2.48"/><path class="cls-6" d="M917.5,15.57c0-1.37,1.12-2.49,2.49-2.49s2.48,1.12,2.48,2.49-1.12,2.48-2.48,2.48-2.49-1.12-2.49-2.48"/><line class="cls-7" x1="709.28" y1="15.57" x2="919.99" y2="15.57"/><path class="cls-20" d="M706.79,15.57c0-1.37,1.12-2.49,2.49-2.49s2.49,1.12,2.49,2.49-1.12,2.48-2.49,2.48-2.49-1.12-2.49-2.48"/><path class="cls-6" d="M706.79,15.57c0-1.37,1.12-2.49,2.49-2.49s2.49,1.12,2.49,2.49-1.12,2.48-2.49,2.48-2.49-1.12-2.49-2.48"/><path class="cls-20" d="M711.27,15.57c0-1.37,1.12-2.49,2.49-2.49s2.49,1.12,2.49,2.49-1.12,2.48-2.49,2.48-2.49-1.12-2.49-2.48"/><path class="cls-6" d="M711.27,15.57c0-1.37,1.12-2.49,2.49-2.49s2.49,1.12,2.49,2.49-1.12,2.48-2.49,2.48-2.49-1.12-2.49-2.48"/><path class="cls-20" d="M715.76,15.57c0-1.37,1.12-2.49,2.48-2.49s2.49,1.12,2.49,2.49-1.12,2.48-2.49,2.48-2.48-1.12-2.48-2.48"/><path class="cls-6" d="M715.76,15.57c0-1.37,1.12-2.49,2.48-2.49s2.49,1.12,2.49,2.49-1.12,2.48-2.49,2.48-2.48-1.12-2.48-2.48"/><path class="cls-20" d="M720.24,15.57c0-1.37,1.12-2.49,2.49-2.49s2.49,1.12,2.49,2.49-1.12,2.48-2.49,2.48-2.49-1.12-2.49-2.48"/><path class="cls-6" d="M720.24,15.57c0-1.37,1.12-2.49,2.49-2.49s2.49,1.12,2.49,2.49-1.12,2.48-2.49,2.48-2.49-1.12-2.49-2.48"/><path class="cls-20" d="M724.72,15.57c0-1.37,1.12-2.49,2.49-2.49s2.49,1.12,2.49,2.49-1.12,2.48-2.49,2.48-2.49-1.12-2.49-2.48"/><path class="cls-6" d="M724.72,15.57c0-1.37,1.12-2.49,2.49-2.49s2.49,1.12,2.49,2.49-1.12,2.48-2.49,2.48-2.49-1.12-2.49-2.48"/><path class="cls-20" d="M729.21,15.57c0-1.37,1.12-2.49,2.48-2.49s2.49,1.12,2.49,2.49-1.12,2.48-2.49,2.48-2.48-1.12-2.48-2.48"/><path class="cls-6" d="M729.21,15.57c0-1.37,1.12-2.49,2.48-2.49s2.49,1.12,2.49,2.49-1.12,2.48-2.49,2.48-2.48-1.12-2.48-2.48"/><path class="cls-20" d="M733.69,15.57c0-1.37,1.12-2.49,2.49-2.49s2.49,1.12,2.49,2.49-1.12,2.48-2.49,2.48-2.49-1.12-2.49-2.48"/><path class="cls-6" d="M733.69,15.57c0-1.37,1.12-2.49,2.49-2.49s2.49,1.12,2.49,2.49-1.12,2.48-2.49,2.48-2.49-1.12-2.49-2.48"/><path class="cls-20" d="M738.17,17.27c0-1.36,1.12-2.48,2.49-2.48s2.49,1.12,2.49,2.48-1.12,2.49-2.49,2.49-2.49-1.12-2.49-2.49"/><path class="cls-6" d="M738.17,17.27c0-1.36,1.12-2.48,2.49-2.48s2.49,1.12,2.49,2.48-1.12,2.49-2.49,2.49-2.49-1.12-2.49-2.49"/><path class="cls-20" d="M742.66,17.43c0-1.37,1.12-2.49,2.48-2.49s2.49,1.12,2.49,2.49-1.12,2.49-2.49,2.49-2.48-1.12-2.48-2.49"/><path class="cls-6" d="M742.66,17.43c0-1.37,1.12-2.49,2.48-2.49s2.49,1.12,2.49,2.49-1.12,2.49-2.49,2.49-2.48-1.12-2.48-2.49"/><path class="cls-20" d="M747.14,19.3c0-1.37,1.12-2.49,2.49-2.49s2.49,1.12,2.49,2.49-1.12,2.49-2.49,2.49-2.49-1.12-2.49-2.49"/><path class="cls-6" d="M747.14,19.3c0-1.37,1.12-2.49,2.49-2.49s2.49,1.12,2.49,2.49-1.12,2.49-2.49,2.49-2.49-1.12-2.49-2.49"/><path class="cls-20" d="M751.62,19.3c0-1.37,1.12-2.49,2.49-2.49s2.49,1.12,2.49,2.49-1.12,2.49-2.49,2.49-2.49-1.12-2.49-2.49"/><path class="cls-6" d="M751.62,19.3c0-1.37,1.12-2.49,2.49-2.49s2.49,1.12,2.49,2.49-1.12,2.49-2.49,2.49-2.49-1.12-2.49-2.49"/><path class="cls-20" d="M756.1,19.3c0-1.37,1.12-2.49,2.49-2.49s2.49,1.12,2.49,2.49-1.12,2.49-2.49,2.49-2.49-1.12-2.49-2.49"/><path class="cls-6" d="M756.1,19.3c0-1.37,1.12-2.49,2.49-2.49s2.49,1.12,2.49,2.49-1.12,2.49-2.49,2.49-2.49-1.12-2.49-2.49"/><path class="cls-20" d="M760.59,19.68c0-1.37,1.12-2.49,2.49-2.49s2.48,1.12,2.48,2.49-1.12,2.49-2.48,2.49-2.49-1.12-2.49-2.49"/><path class="cls-6" d="M760.59,19.68c0-1.37,1.12-2.49,2.49-2.49s2.48,1.12,2.48,2.49-1.12,2.49-2.48,2.49-2.49-1.12-2.49-2.49"/><path class="cls-20" d="M765.07,19.68c0-1.37,1.12-2.49,2.49-2.49s2.49,1.12,2.49,2.49-1.12,2.49-2.49,2.49-2.49-1.12-2.49-2.49"/><path class="cls-6" d="M765.07,19.68c0-1.37,1.12-2.49,2.49-2.49s2.49,1.12,2.49,2.49-1.12,2.49-2.49,2.49-2.49-1.12-2.49-2.49"/><path class="cls-20" d="M769.55,19.68c0-1.37,1.12-2.49,2.49-2.49s2.49,1.12,2.49,2.49-1.12,2.49-2.49,2.49-2.49-1.12-2.49-2.49"/><path class="cls-6" d="M769.55,19.68c0-1.37,1.12-2.49,2.49-2.49s2.49,1.12,2.49,2.49-1.12,2.49-2.49,2.49-2.49-1.12-2.49-2.49"/><path class="cls-20" d="M774.04,29.97c0-1.36,1.12-2.48,2.49-2.48s2.48,1.12,2.48,2.48-1.12,2.49-2.48,2.49-2.49-1.12-2.49-2.49"/><path class="cls-6" d="M774.04,29.97c0-1.36,1.12-2.48,2.49-2.48s2.48,1.12,2.48,2.48-1.12,2.49-2.48,2.49-2.49-1.12-2.49-2.49"/><path class="cls-20" d="M778.52,31.61c0-1.37,1.12-2.49,2.49-2.49s2.49,1.12,2.49,2.49-1.12,2.49-2.49,2.49-2.49-1.12-2.49-2.49"/><path class="cls-6" d="M778.52,31.61c0-1.37,1.12-2.49,2.49-2.49s2.49,1.12,2.49,2.49-1.12,2.49-2.49,2.49-2.49-1.12-2.49-2.49"/><path class="cls-20" d="M783,31.61c0-1.37,1.12-2.49,2.49-2.49s2.49,1.12,2.49,2.49-1.12,2.49-2.49,2.49-2.49-1.12-2.49-2.49"/><path class="cls-6" d="M783,31.61c0-1.37,1.12-2.49,2.49-2.49s2.49,1.12,2.49,2.49-1.12,2.49-2.49,2.49-2.49-1.12-2.49-2.49"/><path class="cls-20" d="M787.49,38.49c0-1.37,1.12-2.49,2.48-2.49s2.49,1.12,2.49,2.49-1.12,2.49-2.49,2.49-2.48-1.12-2.48-2.49"/><path class="cls-6" d="M787.49,38.49c0-1.37,1.12-2.49,2.48-2.49s2.49,1.12,2.49,2.49-1.12,2.49-2.49,2.49-2.48-1.12-2.48-2.49"/><path class="cls-20" d="M791.97,61.41c0-1.37,1.12-2.49,2.49-2.49s2.49,1.12,2.49,2.49-1.12,2.49-2.49,2.49-2.49-1.12-2.49-2.49"/><path class="cls-6" d="M791.97,61.41c0-1.37,1.12-2.49,2.49-2.49s2.49,1.12,2.49,2.49-1.12,2.49-2.49,2.49-2.49-1.12-2.49-2.49"/><path class="cls-20" d="M796.45,98.32c0-1.37,1.12-2.49,2.49-2.49s2.49,1.12,2.49,2.49-1.12,2.49-2.49,2.49-2.49-1.12-2.49-2.49"/><path class="cls-6" d="M796.45,98.32c0-1.37,1.12-2.49,2.49-2.49s2.49,1.12,2.49,2.49-1.12,2.49-2.49,2.49-2.49-1.12-2.49-2.49"/><path class="cls-20" d="M800.94,131.94c0-1.37,1.12-2.49,2.48-2.49s2.49,1.12,2.49,2.49-1.12,2.49-2.49,2.49-2.48-1.12-2.48-2.49"/><path class="cls-6" d="M800.94,131.94c0-1.37,1.12-2.49,2.48-2.49s2.49,1.12,2.49,2.49-1.12,2.49-2.49,2.49-2.48-1.12-2.48-2.49"/><path class="cls-20" d="M805.42,152.63c0-1.37,1.12-2.49,2.49-2.49s2.49,1.12,2.49,2.49-1.12,2.49-2.49,2.49-2.49-1.12-2.49-2.49"/><path class="cls-6" d="M805.42,152.63c0-1.37,1.12-2.49,2.49-2.49s2.49,1.12,2.49,2.49-1.12,2.49-2.49,2.49-2.49-1.12-2.49-2.49"/><path class="cls-20" d="M809.9,178.49c0-1.37,1.12-2.49,2.49-2.49s2.49,1.12,2.49,2.49-1.12,2.49-2.49,2.49-2.49-1.12-2.49-2.49"/><path class="cls-6" d="M809.9,178.49c0-1.37,1.12-2.49,2.49-2.49s2.49,1.12,2.49,2.49-1.12,2.49-2.49,2.49-2.49-1.12-2.49-2.49"/><path class="cls-20" d="M814.39,181.69c0-1.37,1.11-2.49,2.48-2.49s2.49,1.12,2.49,2.49-1.12,2.48-2.49,2.48-2.48-1.12-2.48-2.48"/><path class="cls-6" d="M814.39,181.69c0-1.37,1.11-2.49,2.48-2.49s2.49,1.12,2.49,2.49-1.12,2.48-2.49,2.48-2.48-1.12-2.48-2.48"/><path class="cls-20" d="M818.87,196.52c0-1.37,1.12-2.49,2.49-2.49s2.48,1.12,2.48,2.49-1.11,2.49-2.48,2.49-2.49-1.12-2.49-2.49"/><path class="cls-6" d="M818.87,196.52c0-1.37,1.12-2.49,2.49-2.49s2.48,1.12,2.48,2.49-1.11,2.49-2.48,2.49-2.49-1.12-2.49-2.49"/><path class="cls-20" d="M823.35,196.52c0-1.37,1.12-2.49,2.49-2.49s2.49,1.12,2.49,2.49-1.12,2.49-2.49,2.49-2.49-1.12-2.49-2.49"/><path class="cls-6" d="M823.35,196.52c0-1.37,1.12-2.49,2.49-2.49s2.49,1.12,2.49,2.49-1.12,2.49-2.49,2.49-2.49-1.12-2.49-2.49"/><path class="cls-20" d="M827.83,202.45c0-1.37,1.12-2.49,2.49-2.49s2.49,1.12,2.49,2.49-1.12,2.49-2.49,2.49-2.49-1.12-2.49-2.49"/><path class="cls-6" d="M827.83,202.45c0-1.37,1.12-2.49,2.49-2.49s2.49,1.12,2.49,2.49-1.12,2.49-2.49,2.49-2.49-1.12-2.49-2.49"/><path class="cls-20" d="M832.32,199.89c0-1.37,1.12-2.48,2.49-2.48s2.48,1.11,2.48,2.48-1.12,2.49-2.48,2.49-2.49-1.12-2.49-2.49"/><path class="cls-6" d="M832.32,199.89c0-1.37,1.12-2.48,2.49-2.48s2.48,1.11,2.48,2.48-1.12,2.49-2.48,2.49-2.49-1.12-2.49-2.49"/><path class="cls-20" d="M836.8,203.37c0-1.37,1.12-2.49,2.49-2.49s2.49,1.12,2.49,2.49-1.12,2.49-2.49,2.49-2.49-1.12-2.49-2.49"/><path class="cls-6" d="M836.8,203.37c0-1.37,1.12-2.49,2.49-2.49s2.49,1.12,2.49,2.49-1.12,2.49-2.49,2.49-2.49-1.12-2.49-2.49"/><path class="cls-20" d="M841.28,206.85c0-1.37,1.12-2.49,2.49-2.49s2.49,1.12,2.49,2.49-1.12,2.49-2.49,2.49-2.49-1.12-2.49-2.49"/><path class="cls-6" d="M841.28,206.85c0-1.37,1.12-2.49,2.49-2.49s2.49,1.12,2.49,2.49-1.12,2.49-2.49,2.49-2.49-1.12-2.49-2.49"/><path class="cls-20" d="M845.77,210.33c0-1.37,1.12-2.49,2.49-2.49s2.48,1.12,2.48,2.49-1.12,2.49-2.48,2.49-2.49-1.12-2.49-2.49"/><path class="cls-6" d="M845.77,210.33c0-1.37,1.12-2.49,2.49-2.49s2.48,1.12,2.48,2.49-1.12,2.49-2.48,2.49-2.49-1.12-2.49-2.49"/><path class="cls-20" d="M850.25,208.88c0-1.37,1.12-2.49,2.49-2.49s2.49,1.12,2.49,2.49-1.12,2.49-2.49,2.49-2.49-1.12-2.49-2.49"/><path class="cls-6" d="M850.25,208.88c0-1.37,1.12-2.49,2.49-2.49s2.49,1.12,2.49,2.49-1.12,2.49-2.49,2.49-2.49-1.12-2.49-2.49"/><path class="cls-20" d="M854.73,208.88c0-1.37,1.12-2.49,2.49-2.49s2.49,1.12,2.49,2.49-1.12,2.49-2.49,2.49-2.49-1.12-2.49-2.49"/><path class="cls-6" d="M854.73,208.88c0-1.37,1.12-2.49,2.49-2.49s2.49,1.12,2.49,2.49-1.12,2.49-2.49,2.49-2.49-1.12-2.49-2.49"/><path class="cls-20" d="M859.22,208.88c0-1.37,1.12-2.49,2.48-2.49s2.49,1.12,2.49,2.49-1.12,2.49-2.49,2.49-2.48-1.12-2.48-2.49"/><path class="cls-6" d="M859.22,208.88c0-1.37,1.12-2.49,2.48-2.49s2.49,1.12,2.49,2.49-1.12,2.49-2.49,2.49-2.48-1.12-2.48-2.49"/><path class="cls-20" d="M863.7,208.88c0-1.37,1.12-2.49,2.49-2.49s2.49,1.12,2.49,2.49-1.12,2.49-2.49,2.49-2.49-1.12-2.49-2.49"/><path class="cls-6" d="M863.7,208.88c0-1.37,1.12-2.49,2.49-2.49s2.49,1.12,2.49,2.49-1.12,2.49-2.49,2.49-2.49-1.12-2.49-2.49"/><path class="cls-20" d="M917.5,217.28c0-1.37,1.12-2.49,2.49-2.49s2.48,1.12,2.48,2.49-1.12,2.49-2.48,2.49-2.49-1.12-2.49-2.49"/><path class="cls-6" d="M917.5,217.28c0-1.37,1.12-2.49,2.49-2.49s2.48,1.12,2.48,2.49-1.12,2.49-2.48,2.49-2.49-1.12-2.49-2.49"/><polyline class="cls-2" points="709.28 15.58 713.76 15.59 718.24 15.61 722.73 15.65 727.21 15.7 731.69 15.77 736.18 15.89 740.66 16.06 745.14 16.31 749.63 16.69 754.11 17.25 758.59 18.08 763.08 19.31 767.56 21.14 772.04 23.85 776.53 27.81 781.01 33.57 785.49 41.85 789.97 53.52 794.46 69.51 798.94 90.52 803.42 116.46 807.91 145.64 812.39 174.26 816.87 197.19 821.36 210.83 825.84 216.1 830.32 217.19 834.81 217.28 839.29 217.28 843.77 217.28 848.26 217.28 852.74 217.28 857.22 217.28 861.7 217.28 866.19 217.28 870.67 217.28 875.15 217.28 879.64 217.28 884.12 217.28 888.6 217.28 893.09 217.28 897.57 217.28 902.05 217.28 906.54 217.28 911.02 217.28 915.5 217.28 919.99 217.28"/><rect class="cls-3" x="698.74" y="5.48" width="231.78" height="221.89"/></g><text class="cls-12" transform="translate(654.45 222.31)"><tspan x="0" y="0">0.00</tspan></text><text class="cls-12" transform="translate(654.45 171.88)"><tspan x="0" y="0">0.25</tspan></text><text class="cls-12" transform="translate(654.45 121.45)"><tspan x="0" y="0">0.50</tspan></text><text class="cls-12" transform="translate(654.45 71.02)"><tspan x="0" y="0">0.75</tspan></text><text class="cls-12" transform="translate(654.45 20.59)"><tspan x="0" y="0">1.00</tspan></text><line class="cls-4" x1="691.66" y1="217.28" x2="698.74" y2="217.28"/><line class="cls-4" x1="691.66" y1="166.85" x2="698.74" y2="166.85"/><line class="cls-4" x1="691.66" y1="116.42" x2="698.74" y2="116.42"/><line class="cls-4" x1="691.66" y1="65.99" x2="698.74" y2="65.99"/><line class="cls-4" x1="691.66" y1="15.57" x2="698.74" y2="15.57"/><line class="cls-4" x1="704.8" y1="234.46" x2="704.8" y2="227.37"/><line class="cls-4" x1="749.63" y1="234.46" x2="749.63" y2="227.37"/><line class="cls-4" x1="794.46" y1="234.46" x2="794.46" y2="227.37"/><line class="cls-4" x1="839.29" y1="234.46" x2="839.29" y2="227.37"/><line class="cls-4" x1="884.12" y1="234.46" x2="884.12" y2="227.37"/><line class="cls-4" x1="928.95" y1="234.46" x2="928.95" y2="227.37"/><text class="cls-12" transform="translate(700.9 254.47)"><tspan x="0" y="0">0</tspan></text><text class="cls-12" transform="translate(741.84 254.47)"><tspan x="0" y="0">10</tspan></text><text class="cls-12" transform="translate(786.67 254.47)"><tspan x="0" y="0">20</tspan></text><text class="cls-12" transform="translate(831.51 254.47)"><tspan x="0" y="0">30</tspan></text><text class="cls-12" transform="translate(876.34 254.47)"><tspan x="0" y="0">40</tspan></text><text class="cls-12" transform="translate(921.17 254.47)"><tspan x="0" y="0">50</tspan></text><text class="cls-11" transform="translate(784.86 279)"><tspan x="0" y="0">Time (h)</tspan></text><text class="cls-11" transform="translate(640.97 184.36) rotate(-90)"><tspan x="0" y="0">Su</tspan><tspan class="cls-29" x="19.57" y="0">r</tspan><tspan x="25.36" y="0">vi</tspan><tspan class="cls-21" x="36.92" y="0">v</tspan><tspan x="44.53" y="0">al Propo</tspan><tspan class="cls-27" x="104.13" y="0">r</tspan><tspan x="110.08" y="0">tion</tspan></text><rect class="cls-19" x="805.73" y="29.69" width="83.11" height="45.52"/><rect class="cls-19" x="811.21" y="35.17" width="17.28" height="17.28"/><path class="cls-23" d="M817.36,43.81c0-1.37,1.12-2.49,2.49-2.49s2.48,1.12,2.48,2.49-1.12,2.49-2.48,2.49-2.49-1.12-2.49-2.49"/><path class="cls-6" d="M817.36,43.81c0-1.37,1.12-2.49,2.49-2.49s2.48,1.12,2.48,2.49-1.12,2.49-2.48,2.49-2.49-1.12-2.49-2.49"/><rect class="cls-19" x="811.21" y="52.45" width="17.28" height="17.28"/><path class="cls-20" d="M817.36,61.09c0-1.37,1.12-2.49,2.49-2.49s2.48,1.12,2.48,2.49-1.12,2.49-2.48,2.49-2.49-1.12-2.49-2.49"/><path class="cls-6" d="M817.36,61.09c0-1.37,1.12-2.49,2.49-2.49s2.48,1.12,2.48,2.49-1.12,2.49-2.48,2.49-2.49-1.12-2.49-2.49"/><text class="cls-12" transform="translate(833.97 48.83)"><tspan x="0" y="0">Control</tspan></text><text class="cls-12" transform="translate(833.97 66.11)"><tspan x="0" y="0">In</tspan><tspan class="cls-24" x="11.68" y="0">f</tspan><tspan x="15.16" y="0">ected</tspan></text><rect class="cls-19" x="805.73" y="86.16" width="110.52" height="28.24"/><rect class="cls-19" x="811.21" y="91.65" width="17.28" height="17.28"/><line class="cls-2" x1="812.93" y1="100.29" x2="826.76" y2="100.29"/><text class="cls-12" transform="translate(833.97 105.31)"><tspan x="0" y="0">Gompe</tspan><tspan class="cls-28" x="45.91" y="0">r</tspan><tspan x="51.12" y="0">tz fit</tspan></text><text class="cls-13" transform="translate(629.05 15.08)"><tspan x="0" y="0">C</tspan></text></svg>